ISO-10303-21;
HEADER;
FILE_DESCRIPTION(('FreeCAD Model'),'2;1');
FILE_NAME('Open CASCADE Shape Model','2026-09-17T22:03:05',(''),(''),
  'Open CASCADE STEP processor 7.8','FreeCAD','Unknown');
FILE_SCHEMA(('AUTOMOTIVE_DESIGN { 1 0 10303 214 1 1 1 1 }'));
ENDSEC;
DATA;
#1 = APPLICATION_PROTOCOL_DEFINITION('international standard',
  'automotive_design',2000,#2);
#2 = APPLICATION_CONTEXT(
  'core data for automotive mechanical design processes');
#3 = SHAPE_DEFINITION_REPRESENTATION(#4,#10);
#4 = PRODUCT_DEFINITION_SHAPE('','',#5);
#5 = PRODUCT_DEFINITION('design','',#6,#9);
#6 = PRODUCT_DEFINITION_FORMATION('','',#7);
#7 = PRODUCT('Body','Body','',(#8));
#8 = PRODUCT_CONTEXT('',#2,'mechanical');
#9 = PRODUCT_DEFINITION_CONTEXT('part definition',#2,'design');
#10 = ADVANCED_BREP_SHAPE_REPRESENTATION('',(#11,#15),#1809);
#11 = AXIS2_PLACEMENT_3D('',#12,#13,#14);
#12 = CARTESIAN_POINT('',(0.,0.,0.));
#13 = DIRECTION('',(0.,0.,1.));
#14 = DIRECTION('',(1.,0.,-0.));
#15 = MANIFOLD_SOLID_BREP('',#16);
#16 = CLOSED_SHELL('',(#17,#173,#204,#229,#253,#277,#302,#398,#422,#508,
    #533,#549,#573,#590,#614,#650,#675,#763,#787,#850,#874,#898,#922,
    #939,#963,#987,#1011,#1028,#1040,#1053,#1078,#1102,#1126,#1143,#1167
    ,#1191,#1208,#1220,#1232,#1377,#1408,#1432,#1456,#1473,#1504,#1528,
    #1552,#1569,#1600,#1624,#1648,#1665,#1696,#1720,#1744,#1761,#1773,
    #1785,#1797));
#17 = ADVANCED_FACE('',(#18),#168,.T.);
#18 = FACE_BOUND('',#19,.T.);
#19 = EDGE_LOOP('',(#20,#30,#39,#47,#55,#63,#71,#79,#87,#95,#103,#111,
    #120,#128,#136,#145,#153,#162));
#20 = ORIENTED_EDGE('',*,*,#21,.T.);
#21 = EDGE_CURVE('',#22,#24,#26,.T.);
#22 = VERTEX_POINT('',#23);
#23 = CARTESIAN_POINT('',(2.468403995364,-1.35904945902E-16,
    -0.612061463722));
#24 = VERTEX_POINT('',#25);
#25 = CARTESIAN_POINT('',(2.941671296566,0.,-0.612061463722));
#26 = LINE('',#27,#28);
#27 = CARTESIAN_POINT('',(2.468403995364,-1.35904945902E-16,
    -0.612061463722));
#28 = VECTOR('',#29,1.);
#29 = DIRECTION('',(1.,0.,0.));
#30 = ORIENTED_EDGE('',*,*,#31,.T.);
#31 = EDGE_CURVE('',#24,#32,#34,.T.);
#32 = VERTEX_POINT('',#33);
#33 = CARTESIAN_POINT('',(3.038263879195,0.,-0.537943368232));
#34 = CIRCLE('',#35,0.1);
#35 = AXIS2_PLACEMENT_3D('',#36,#37,#38);
#36 = CARTESIAN_POINT('',(2.941671296566,0.,-0.512061463722));
#37 = DIRECTION('',(0.,-1.,2.22044604925E-16));
#38 = DIRECTION('',(0.,-2.22044604925E-16,-1.));
#39 = ORIENTED_EDGE('',*,*,#40,.T.);
#40 = EDGE_CURVE('',#32,#41,#43,.T.);
#41 = VERTEX_POINT('',#42);
#42 = CARTESIAN_POINT('',(3.182405370286,0.,6.217248937901E-16));
#43 = LINE('',#44,#45);
#44 = CARTESIAN_POINT('',(3.018403995364,-1.35904945902E-16,
    -0.612061463722));
#45 = VECTOR('',#46,1.);
#46 = DIRECTION('',(0.258819045103,2.144786184852E-16,0.965925826289));
#47 = ORIENTED_EDGE('',*,*,#48,.T.);
#48 = EDGE_CURVE('',#41,#49,#51,.T.);
#49 = VERTEX_POINT('',#50);
#50 = CARTESIAN_POINT('',(3.2,0.,6.217248937901E-16));
#51 = LINE('',#52,#53);
#52 = CARTESIAN_POINT('',(3.182405370286,0.,6.217248937901E-16));
#53 = VECTOR('',#54,1.);
#54 = DIRECTION('',(1.,0.,0.));
#55 = ORIENTED_EDGE('',*,*,#56,.F.);
#56 = EDGE_CURVE('',#57,#49,#59,.T.);
#57 = VERTEX_POINT('',#58);
#58 = CARTESIAN_POINT('',(3.2,0.,0.54));
#59 = LINE('',#60,#61);
#60 = CARTESIAN_POINT('',(3.2,0.,0.));
#61 = VECTOR('',#62,1.);
#62 = DIRECTION('',(0.,0.,-1.));
#63 = ORIENTED_EDGE('',*,*,#64,.T.);
#64 = EDGE_CURVE('',#57,#65,#67,.T.);
#65 = VERTEX_POINT('',#66);
#66 = CARTESIAN_POINT('',(2.4,0.,0.54));
#67 = LINE('',#68,#69);
#68 = CARTESIAN_POINT('',(3.2,0.,0.54));
#69 = VECTOR('',#70,1.);
#70 = DIRECTION('',(-1.,0.,0.));
#71 = ORIENTED_EDGE('',*,*,#72,.F.);
#72 = EDGE_CURVE('',#73,#65,#75,.T.);
#73 = VERTEX_POINT('',#74);
#74 = CARTESIAN_POINT('',(2.4,0.,0.84));
#75 = LINE('',#76,#77);
#76 = CARTESIAN_POINT('',(2.4,0.,0.84));
#77 = VECTOR('',#78,1.);
#78 = DIRECTION('',(-0.,-0.,-1.));
#79 = ORIENTED_EDGE('',*,*,#80,.F.);
#80 = EDGE_CURVE('',#81,#73,#83,.T.);
#81 = VERTEX_POINT('',#82);
#82 = CARTESIAN_POINT('',(0.,0.,0.84));
#83 = LINE('',#84,#85);
#84 = CARTESIAN_POINT('',(0.,0.,0.84));
#85 = VECTOR('',#86,1.);
#86 = DIRECTION('',(1.,0.,0.));
#87 = ORIENTED_EDGE('',*,*,#88,.F.);
#88 = EDGE_CURVE('',#89,#81,#91,.T.);
#89 = VERTEX_POINT('',#90);
#90 = CARTESIAN_POINT('',(0.,0.,6.217248937901E-16));
#91 = LINE('',#92,#93);
#92 = CARTESIAN_POINT('',(0.,0.,0.));
#93 = VECTOR('',#94,1.);
#94 = DIRECTION('',(0.,0.,1.));
#95 = ORIENTED_EDGE('',*,*,#96,.F.);
#96 = EDGE_CURVE('',#97,#89,#99,.T.);
#97 = VERTEX_POINT('',#98);
#98 = CARTESIAN_POINT('',(1.759462971387E-02,0.,6.217248937901E-16));
#99 = LINE('',#100,#101);
#100 = CARTESIAN_POINT('',(1.759462971387E-02,0.,6.217248937901E-16));
#101 = VECTOR('',#102,1.);
#102 = DIRECTION('',(-1.,0.,0.));
#103 = ORIENTED_EDGE('',*,*,#104,.F.);
#104 = EDGE_CURVE('',#105,#97,#107,.T.);
#105 = VERTEX_POINT('',#106);
#106 = CARTESIAN_POINT('',(0.161736120805,0.,-0.537943368232));
#107 = LINE('',#108,#109);
#108 = CARTESIAN_POINT('',(0.181596004636,-1.35904945902E-16,
    -0.612061463722));
#109 = VECTOR('',#110,1.);
#110 = DIRECTION('',(-0.258819045103,2.144786184852E-16,0.965925826289)
  );
#111 = ORIENTED_EDGE('',*,*,#112,.F.);
#112 = EDGE_CURVE('',#113,#105,#115,.T.);
#113 = VERTEX_POINT('',#114);
#114 = CARTESIAN_POINT('',(0.258328703434,0.,-0.612061463722));
#115 = CIRCLE('',#116,0.1);
#116 = AXIS2_PLACEMENT_3D('',#117,#118,#119);
#117 = CARTESIAN_POINT('',(0.258328703434,0.,-0.512061463722));
#118 = DIRECTION('',(-0.,1.,-2.22044604925E-16));
#119 = DIRECTION('',(0.,-2.22044604925E-16,-1.));
#120 = ORIENTED_EDGE('',*,*,#121,.F.);
#121 = EDGE_CURVE('',#122,#113,#124,.T.);
#122 = VERTEX_POINT('',#123);
#123 = CARTESIAN_POINT('',(0.731596004636,-1.35904945902E-16,
    -0.612061463722));
#124 = LINE('',#125,#126);
#125 = CARTESIAN_POINT('',(0.731596004636,-1.35904945902E-16,
    -0.612061463722));
#126 = VECTOR('',#127,1.);
#127 = DIRECTION('',(-1.,0.,0.));
#128 = ORIENTED_EDGE('',*,*,#129,.F.);
#129 = EDGE_CURVE('',#130,#122,#132,.T.);
#130 = VERTEX_POINT('',#131);
#131 = CARTESIAN_POINT('',(0.776051498886,0.,-0.734201997682));
#132 = LINE('',#133,#134);
#133 = CARTESIAN_POINT('',(0.8,-1.7763568394E-16,-0.8));
#134 = VECTOR('',#135,1.);
#135 = DIRECTION('',(-0.342019976818,2.0865369019E-16,0.93969268139));
#136 = ORIENTED_EDGE('',*,*,#137,.F.);
#137 = EDGE_CURVE('',#138,#130,#140,.T.);
#138 = VERTEX_POINT('',#139);
#139 = CARTESIAN_POINT('',(0.870020767024,0.,-0.8));
#140 = CIRCLE('',#141,0.1);
#141 = AXIS2_PLACEMENT_3D('',#142,#143,#144);
#142 = CARTESIAN_POINT('',(0.870020767024,0.,-0.7));
#143 = DIRECTION('',(0.,1.,-2.22044604925E-16));
#144 = DIRECTION('',(0.,-2.22044604925E-16,-1.));
#145 = ORIENTED_EDGE('',*,*,#146,.F.);
#146 = EDGE_CURVE('',#147,#138,#149,.T.);
#147 = VERTEX_POINT('',#148);
#148 = CARTESIAN_POINT('',(2.329979232976,0.,-0.8));
#149 = LINE('',#150,#151);
#150 = CARTESIAN_POINT('',(3.2,0.,-0.8));
#151 = VECTOR('',#152,1.);
#152 = DIRECTION('',(-1.,0.,0.));
#153 = ORIENTED_EDGE('',*,*,#154,.F.);
#154 = EDGE_CURVE('',#155,#147,#157,.T.);
#155 = VERTEX_POINT('',#156);
#156 = CARTESIAN_POINT('',(2.423948501114,0.,-0.734201997682));
#157 = CIRCLE('',#158,0.1);
#158 = AXIS2_PLACEMENT_3D('',#159,#160,#161);
#159 = CARTESIAN_POINT('',(2.329979232976,0.,-0.7));
#160 = DIRECTION('',(0.,1.,-2.22044604925E-16));
#161 = DIRECTION('',(0.,-2.22044604925E-16,-1.));
#162 = ORIENTED_EDGE('',*,*,#163,.T.);
#163 = EDGE_CURVE('',#155,#22,#164,.T.);
#164 = LINE('',#165,#166);
#165 = CARTESIAN_POINT('',(2.4,-1.7763568394E-16,-0.8));
#166 = VECTOR('',#167,1.);
#167 = DIRECTION('',(0.342019976818,2.0865369019E-16,0.93969268139));
#168 = PLANE('',#169);
#169 = AXIS2_PLACEMENT_3D('',#170,#171,#172);
#170 = CARTESIAN_POINT('',(1.57520661157,0.,-4.793388429752E-03));
#171 = DIRECTION('',(-0.,-1.,-0.));
#172 = DIRECTION('',(0.,0.,-1.));
#173 = ADVANCED_FACE('',(#174),#199,.F.);
#174 = FACE_BOUND('',#175,.F.);
#175 = EDGE_LOOP('',(#176,#186,#192,#193));
#176 = ORIENTED_EDGE('',*,*,#177,.F.);
#177 = EDGE_CURVE('',#178,#180,#182,.T.);
#178 = VERTEX_POINT('',#179);
#179 = CARTESIAN_POINT('',(2.468403995364,2.8,-0.612061463722));
#180 = VERTEX_POINT('',#181);
#181 = CARTESIAN_POINT('',(2.941671296566,2.8,-0.612061463722));
#182 = LINE('',#183,#184);
#183 = CARTESIAN_POINT('',(2.468403995364,2.8,-0.612061463722));
#184 = VECTOR('',#185,1.);
#185 = DIRECTION('',(1.,0.,0.));
#186 = ORIENTED_EDGE('',*,*,#187,.T.);
#187 = EDGE_CURVE('',#178,#22,#188,.T.);
#188 = LINE('',#189,#190);
#189 = CARTESIAN_POINT('',(2.468403995364,2.8,-0.612061463722));
#190 = VECTOR('',#191,1.);
#191 = DIRECTION('',(0.,-1.,2.22044604925E-16));
#192 = ORIENTED_EDGE('',*,*,#21,.T.);
#193 = ORIENTED_EDGE('',*,*,#194,.F.);
#194 = EDGE_CURVE('',#180,#24,#195,.T.);
#195 = LINE('',#196,#197);
#196 = CARTESIAN_POINT('',(2.941671296566,2.8,-0.612061463722));
#197 = VECTOR('',#198,1.);
#198 = DIRECTION('',(0.,-1.,2.22044604925E-16));
#199 = PLANE('',#200);
#200 = AXIS2_PLACEMENT_3D('',#201,#202,#203);
#201 = CARTESIAN_POINT('',(2.468403995364,2.8,-0.612061463722));
#202 = DIRECTION('',(0.,2.22044604925E-16,1.));
#203 = DIRECTION('',(1.,0.,-0.));
#204 = ADVANCED_FACE('',(#205),#224,.T.);
#205 = FACE_BOUND('',#206,.T.);
#206 = EDGE_LOOP('',(#207,#216,#222,#223));
#207 = ORIENTED_EDGE('',*,*,#208,.T.);
#208 = EDGE_CURVE('',#180,#209,#211,.T.);
#209 = VERTEX_POINT('',#210);
#210 = CARTESIAN_POINT('',(3.038263879195,2.8,-0.537943368232));
#211 = CIRCLE('',#212,0.1);
#212 = AXIS2_PLACEMENT_3D('',#213,#214,#215);
#213 = CARTESIAN_POINT('',(2.941671296566,2.8,-0.512061463722));
#214 = DIRECTION('',(0.,-1.,2.22044604925E-16));
#215 = DIRECTION('',(0.,-2.22044604925E-16,-1.));
#216 = ORIENTED_EDGE('',*,*,#217,.T.);
#217 = EDGE_CURVE('',#209,#32,#218,.T.);
#218 = LINE('',#219,#220);
#219 = CARTESIAN_POINT('',(3.038263879195,2.8,-0.537943368232));
#220 = VECTOR('',#221,1.);
#221 = DIRECTION('',(0.,-1.,2.22044604925E-16));
#222 = ORIENTED_EDGE('',*,*,#31,.F.);
#223 = ORIENTED_EDGE('',*,*,#194,.F.);
#224 = CYLINDRICAL_SURFACE('',#225,0.1);
#225 = AXIS2_PLACEMENT_3D('',#226,#227,#228);
#226 = CARTESIAN_POINT('',(2.941671296566,2.8,-0.512061463722));
#227 = DIRECTION('',(0.,-1.,2.22044604925E-16));
#228 = DIRECTION('',(0.,-2.22044604925E-16,-1.));
#229 = ADVANCED_FACE('',(#230),#248,.F.);
#230 = FACE_BOUND('',#231,.F.);
#231 = EDGE_LOOP('',(#232,#240,#246,#247));
#232 = ORIENTED_EDGE('',*,*,#233,.F.);
#233 = EDGE_CURVE('',#234,#178,#236,.T.);
#234 = VERTEX_POINT('',#235);
#235 = CARTESIAN_POINT('',(2.423948501114,2.8,-0.734201997682));
#236 = LINE('',#237,#238);
#237 = CARTESIAN_POINT('',(2.4,2.8,-0.8));
#238 = VECTOR('',#239,1.);
#239 = DIRECTION('',(0.342019976818,2.0865369019E-16,0.93969268139));
#240 = ORIENTED_EDGE('',*,*,#241,.T.);
#241 = EDGE_CURVE('',#234,#155,#242,.T.);
#242 = LINE('',#243,#244);
#243 = CARTESIAN_POINT('',(2.423948501114,2.8,-0.734201997682));
#244 = VECTOR('',#245,1.);
#245 = DIRECTION('',(0.,-1.,2.22044604925E-16));
#246 = ORIENTED_EDGE('',*,*,#163,.T.);
#247 = ORIENTED_EDGE('',*,*,#187,.F.);
#248 = PLANE('',#249);
#249 = AXIS2_PLACEMENT_3D('',#250,#251,#252);
#250 = CARTESIAN_POINT('',(2.4,2.8,-0.8));
#251 = DIRECTION('',(-0.93969268139,7.5943690629E-17,0.342019976818));
#252 = DIRECTION('',(0.342019976818,2.0865369019E-16,0.93969268139));
#253 = ADVANCED_FACE('',(#254),#272,.F.);
#254 = FACE_BOUND('',#255,.F.);
#255 = EDGE_LOOP('',(#256,#264,#265,#266));
#256 = ORIENTED_EDGE('',*,*,#257,.F.);
#257 = EDGE_CURVE('',#209,#258,#260,.T.);
#258 = VERTEX_POINT('',#259);
#259 = CARTESIAN_POINT('',(3.182405370286,2.8,0.));
#260 = LINE('',#261,#262);
#261 = CARTESIAN_POINT('',(3.018403995364,2.8,-0.612061463722));
#262 = VECTOR('',#263,1.);
#263 = DIRECTION('',(0.258819045103,2.144786184852E-16,0.965925826289));
#264 = ORIENTED_EDGE('',*,*,#217,.T.);
#265 = ORIENTED_EDGE('',*,*,#40,.T.);
#266 = ORIENTED_EDGE('',*,*,#267,.F.);
#267 = EDGE_CURVE('',#258,#41,#268,.T.);
#268 = LINE('',#269,#270);
#269 = CARTESIAN_POINT('',(3.182405370286,2.8,0.));
#270 = VECTOR('',#271,1.);
#271 = DIRECTION('',(0.,-1.,2.22044604925E-16));
#272 = PLANE('',#273);
#273 = AXIS2_PLACEMENT_3D('',#274,#275,#276);
#274 = CARTESIAN_POINT('',(3.018403995364,2.8,-0.612061463722));
#275 = DIRECTION('',(-0.965925826289,5.746937261686E-17,0.258819045103)
  );
#276 = DIRECTION('',(0.258819045103,2.144786184852E-16,0.965925826289));
#277 = ADVANCED_FACE('',(#278),#297,.T.);
#278 = FACE_BOUND('',#279,.T.);
#279 = EDGE_LOOP('',(#280,#281,#282,#290));
#280 = ORIENTED_EDGE('',*,*,#241,.T.);
#281 = ORIENTED_EDGE('',*,*,#154,.T.);
#282 = ORIENTED_EDGE('',*,*,#283,.F.);
#283 = EDGE_CURVE('',#284,#147,#286,.T.);
#284 = VERTEX_POINT('',#285);
#285 = CARTESIAN_POINT('',(2.329979232976,2.8,-0.8));
#286 = LINE('',#287,#288);
#287 = CARTESIAN_POINT('',(2.329979232976,2.8,-0.8));
#288 = VECTOR('',#289,1.);
#289 = DIRECTION('',(0.,-1.,2.22044604925E-16));
#290 = ORIENTED_EDGE('',*,*,#291,.F.);
#291 = EDGE_CURVE('',#234,#284,#292,.T.);
#292 = CIRCLE('',#293,0.1);
#293 = AXIS2_PLACEMENT_3D('',#294,#295,#296);
#294 = CARTESIAN_POINT('',(2.329979232976,2.8,-0.7));
#295 = DIRECTION('',(0.,1.,-2.22044604925E-16));
#296 = DIRECTION('',(0.,-2.22044604925E-16,-1.));
#297 = CYLINDRICAL_SURFACE('',#298,0.1);
#298 = AXIS2_PLACEMENT_3D('',#299,#300,#301);
#299 = CARTESIAN_POINT('',(2.329979232976,2.8,-0.7));
#300 = DIRECTION('',(0.,-1.,2.22044604925E-16));
#301 = DIRECTION('',(0.93969268139,-7.594369062899E-17,-0.342019976818)
  );
#302 = ADVANCED_FACE('',(#303),#393,.T.);
#303 = FACE_BOUND('',#304,.T.);
#304 = EDGE_LOOP('',(#305,#306,#314,#322,#330,#338,#346,#354,#362,#370,
    #378,#386,#392));
#305 = ORIENTED_EDGE('',*,*,#267,.F.);
#306 = ORIENTED_EDGE('',*,*,#307,.T.);
#307 = EDGE_CURVE('',#258,#308,#310,.T.);
#308 = VERTEX_POINT('',#309);
#309 = CARTESIAN_POINT('',(3.2,2.8,0.));
#310 = LINE('',#311,#312);
#311 = CARTESIAN_POINT('',(3.182405370286,2.8,0.));
#312 = VECTOR('',#313,1.);
#313 = DIRECTION('',(1.,0.,0.));
#314 = ORIENTED_EDGE('',*,*,#315,.T.);
#315 = EDGE_CURVE('',#308,#316,#318,.T.);
#316 = VERTEX_POINT('',#317);
#317 = CARTESIAN_POINT('',(3.2,2.5,0.));
#318 = LINE('',#319,#320);
#319 = CARTESIAN_POINT('',(3.2,2.8,0.));
#320 = VECTOR('',#321,1.);
#321 = DIRECTION('',(0.,-1.,2.22044604925E-16));
#322 = ORIENTED_EDGE('',*,*,#323,.T.);
#323 = EDGE_CURVE('',#316,#324,#326,.T.);
#324 = VERTEX_POINT('',#325);
#325 = CARTESIAN_POINT('',(4.54,2.5,0.));
#326 = LINE('',#327,#328);
#327 = CARTESIAN_POINT('',(3.2,2.5,0.));
#328 = VECTOR('',#329,1.);
#329 = DIRECTION('',(1.,0.,0.));
#330 = ORIENTED_EDGE('',*,*,#331,.F.);
#331 = EDGE_CURVE('',#332,#324,#334,.T.);
#332 = VERTEX_POINT('',#333);
#333 = CARTESIAN_POINT('',(4.54,1.82,0.));
#334 = LINE('',#335,#336);
#335 = CARTESIAN_POINT('',(4.54,1.82,0.));
#336 = VECTOR('',#337,1.);
#337 = DIRECTION('',(0.,1.,0.));
#338 = ORIENTED_EDGE('',*,*,#339,.F.);
#339 = EDGE_CURVE('',#340,#332,#342,.T.);
#340 = VERTEX_POINT('',#341);
#341 = CARTESIAN_POINT('',(3.2,1.82,0.));
#342 = LINE('',#343,#344);
#343 = CARTESIAN_POINT('',(3.2,1.82,0.));
#344 = VECTOR('',#345,1.);
#345 = DIRECTION('',(1.,0.,0.));
#346 = ORIENTED_EDGE('',*,*,#347,.T.);
#347 = EDGE_CURVE('',#340,#348,#350,.T.);
#348 = VERTEX_POINT('',#349);
#349 = CARTESIAN_POINT('',(3.2,0.98,0.));
#350 = LINE('',#351,#352);
#351 = CARTESIAN_POINT('',(3.2,2.8,0.));
#352 = VECTOR('',#353,1.);
#353 = DIRECTION('',(0.,-1.,2.22044604925E-16));
#354 = ORIENTED_EDGE('',*,*,#355,.T.);
#355 = EDGE_CURVE('',#348,#356,#358,.T.);
#356 = VERTEX_POINT('',#357);
#357 = CARTESIAN_POINT('',(4.54,0.98,0.));
#358 = LINE('',#359,#360);
#359 = CARTESIAN_POINT('',(3.2,0.98,0.));
#360 = VECTOR('',#361,1.);
#361 = DIRECTION('',(1.,0.,0.));
#362 = ORIENTED_EDGE('',*,*,#363,.F.);
#363 = EDGE_CURVE('',#364,#356,#366,.T.);
#364 = VERTEX_POINT('',#365);
#365 = CARTESIAN_POINT('',(4.54,0.64,0.));
#366 = LINE('',#367,#368);
#367 = CARTESIAN_POINT('',(4.54,0.3,0.));
#368 = VECTOR('',#369,1.);
#369 = DIRECTION('',(0.,1.,0.));
#370 = ORIENTED_EDGE('',*,*,#371,.T.);
#371 = EDGE_CURVE('',#364,#372,#374,.T.);
#372 = VERTEX_POINT('',#373);
#373 = CARTESIAN_POINT('',(4.2,0.3,0.));
#374 = LINE('',#375,#376);
#375 = CARTESIAN_POINT('',(4.54,0.64,0.));
#376 = VECTOR('',#377,1.);
#377 = DIRECTION('',(-0.707106781187,-0.707106781187,0.));
#378 = ORIENTED_EDGE('',*,*,#379,.F.);
#379 = EDGE_CURVE('',#380,#372,#382,.T.);
#380 = VERTEX_POINT('',#381);
#381 = CARTESIAN_POINT('',(3.2,0.3,0.));
#382 = LINE('',#383,#384);
#383 = CARTESIAN_POINT('',(3.2,0.3,0.));
#384 = VECTOR('',#385,1.);
#385 = DIRECTION('',(1.,0.,0.));
#386 = ORIENTED_EDGE('',*,*,#387,.T.);
#387 = EDGE_CURVE('',#380,#49,#388,.T.);
#388 = LINE('',#389,#390);
#389 = CARTESIAN_POINT('',(3.2,2.8,0.));
#390 = VECTOR('',#391,1.);
#391 = DIRECTION('',(0.,-1.,2.22044604925E-16));
#392 = ORIENTED_EDGE('',*,*,#48,.F.);
#393 = PLANE('',#394);
#394 = AXIS2_PLACEMENT_3D('',#395,#396,#397);
#395 = CARTESIAN_POINT('',(3.669913796184,1.422510668697,
    1.231005096183E-16));
#396 = DIRECTION('',(-0.,-0.,-1.));
#397 = DIRECTION('',(-1.,0.,0.));
#398 = ADVANCED_FACE('',(#399),#417,.F.);
#399 = FACE_BOUND('',#400,.F.);
#400 = EDGE_LOOP('',(#401,#409,#415,#416));
#401 = ORIENTED_EDGE('',*,*,#402,.F.);
#402 = EDGE_CURVE('',#403,#284,#405,.T.);
#403 = VERTEX_POINT('',#404);
#404 = CARTESIAN_POINT('',(0.870020767024,2.8,-0.8));
#405 = LINE('',#406,#407);
#406 = CARTESIAN_POINT('',(0.,2.8,-0.8));
#407 = VECTOR('',#408,1.);
#408 = DIRECTION('',(1.,0.,0.));
#409 = ORIENTED_EDGE('',*,*,#410,.T.);
#410 = EDGE_CURVE('',#403,#138,#411,.T.);
#411 = LINE('',#412,#413);
#412 = CARTESIAN_POINT('',(0.870020767024,2.8,-0.8));
#413 = VECTOR('',#414,1.);
#414 = DIRECTION('',(0.,-1.,2.22044604925E-16));
#415 = ORIENTED_EDGE('',*,*,#146,.F.);
#416 = ORIENTED_EDGE('',*,*,#283,.F.);
#417 = PLANE('',#418);
#418 = AXIS2_PLACEMENT_3D('',#419,#420,#421);
#419 = CARTESIAN_POINT('',(1.6,1.4,-0.8));
#420 = DIRECTION('',(0.,0.,1.));
#421 = DIRECTION('',(1.,0.,-0.));
#422 = ADVANCED_FACE('',(#423),#503,.T.);
#423 = FACE_BOUND('',#424,.T.);
#424 = EDGE_LOOP('',(#425,#435,#443,#449,#450,#451,#459,#467,#473,#474,
    #482,#490,#496,#497));
#425 = ORIENTED_EDGE('',*,*,#426,.F.);
#426 = EDGE_CURVE('',#427,#429,#431,.T.);
#427 = VERTEX_POINT('',#428);
#428 = CARTESIAN_POINT('',(3.2,0.8,0.84));
#429 = VERTEX_POINT('',#430);
#430 = CARTESIAN_POINT('',(3.2,2.8,0.84));
#431 = LINE('',#432,#433);
#432 = CARTESIAN_POINT('',(3.2,0.,0.84));
#433 = VECTOR('',#434,1.);
#434 = DIRECTION('',(0.,1.,0.));
#435 = ORIENTED_EDGE('',*,*,#436,.T.);
#436 = EDGE_CURVE('',#427,#437,#439,.T.);
#437 = VERTEX_POINT('',#438);
#438 = CARTESIAN_POINT('',(3.2,0.8,0.54));
#439 = LINE('',#440,#441);
#440 = CARTESIAN_POINT('',(3.2,0.8,0.84));
#441 = VECTOR('',#442,1.);
#442 = DIRECTION('',(-0.,-0.,-1.));
#443 = ORIENTED_EDGE('',*,*,#444,.F.);
#444 = EDGE_CURVE('',#57,#437,#445,.T.);
#445 = LINE('',#446,#447);
#446 = CARTESIAN_POINT('',(3.2,0.,0.54));
#447 = VECTOR('',#448,1.);
#448 = DIRECTION('',(0.,1.,0.));
#449 = ORIENTED_EDGE('',*,*,#56,.T.);
#450 = ORIENTED_EDGE('',*,*,#387,.F.);
#451 = ORIENTED_EDGE('',*,*,#452,.F.);
#452 = EDGE_CURVE('',#453,#380,#455,.T.);
#453 = VERTEX_POINT('',#454);
#454 = CARTESIAN_POINT('',(3.2,0.3,0.15));
#455 = LINE('',#456,#457);
#456 = CARTESIAN_POINT('',(3.2,0.3,0.15));
#457 = VECTOR('',#458,1.);
#458 = DIRECTION('',(0.,0.,-1.));
#459 = ORIENTED_EDGE('',*,*,#460,.F.);
#460 = EDGE_CURVE('',#461,#453,#463,.T.);
#461 = VERTEX_POINT('',#462);
#462 = CARTESIAN_POINT('',(3.2,0.98,0.15));
#463 = LINE('',#464,#465);
#464 = CARTESIAN_POINT('',(3.2,0.98,0.15));
#465 = VECTOR('',#466,1.);
#466 = DIRECTION('',(0.,-1.,0.));
#467 = ORIENTED_EDGE('',*,*,#468,.F.);
#468 = EDGE_CURVE('',#348,#461,#469,.T.);
#469 = LINE('',#470,#471);
#470 = CARTESIAN_POINT('',(3.2,0.98,0.));
#471 = VECTOR('',#472,1.);
#472 = DIRECTION('',(0.,0.,1.));
#473 = ORIENTED_EDGE('',*,*,#347,.F.);
#474 = ORIENTED_EDGE('',*,*,#475,.F.);
#475 = EDGE_CURVE('',#476,#340,#478,.T.);
#476 = VERTEX_POINT('',#477);
#477 = CARTESIAN_POINT('',(3.2,1.82,0.15));
#478 = LINE('',#479,#480);
#479 = CARTESIAN_POINT('',(3.2,1.82,0.15));
#480 = VECTOR('',#481,1.);
#481 = DIRECTION('',(0.,0.,-1.));
#482 = ORIENTED_EDGE('',*,*,#483,.F.);
#483 = EDGE_CURVE('',#484,#476,#486,.T.);
#484 = VERTEX_POINT('',#485);
#485 = CARTESIAN_POINT('',(3.2,2.5,0.15));
#486 = LINE('',#487,#488);
#487 = CARTESIAN_POINT('',(3.2,2.5,0.15));
#488 = VECTOR('',#489,1.);
#489 = DIRECTION('',(0.,-1.,0.));
#490 = ORIENTED_EDGE('',*,*,#491,.F.);
#491 = EDGE_CURVE('',#316,#484,#492,.T.);
#492 = LINE('',#493,#494);
#493 = CARTESIAN_POINT('',(3.2,2.5,0.));
#494 = VECTOR('',#495,1.);
#495 = DIRECTION('',(0.,0.,1.));
#496 = ORIENTED_EDGE('',*,*,#315,.F.);
#497 = ORIENTED_EDGE('',*,*,#498,.F.);
#498 = EDGE_CURVE('',#429,#308,#499,.T.);
#499 = LINE('',#500,#501);
#500 = CARTESIAN_POINT('',(3.2,2.8,0.));
#501 = VECTOR('',#502,1.);
#502 = DIRECTION('',(0.,0.,-1.));
#503 = PLANE('',#504);
#504 = AXIS2_PLACEMENT_3D('',#505,#506,#507);
#505 = CARTESIAN_POINT('',(3.2,1.427027027027,-7.027027027027E-03));
#506 = DIRECTION('',(1.,0.,0.));
#507 = DIRECTION('',(0.,0.,1.));
#508 = ADVANCED_FACE('',(#509),#528,.T.);
#509 = FACE_BOUND('',#510,.T.);
#510 = EDGE_LOOP('',(#511,#512,#513,#521));
#511 = ORIENTED_EDGE('',*,*,#410,.T.);
#512 = ORIENTED_EDGE('',*,*,#137,.T.);
#513 = ORIENTED_EDGE('',*,*,#514,.F.);
#514 = EDGE_CURVE('',#515,#130,#517,.T.);
#515 = VERTEX_POINT('',#516);
#516 = CARTESIAN_POINT('',(0.776051498886,2.8,-0.734201997682));
#517 = LINE('',#518,#519);
#518 = CARTESIAN_POINT('',(0.776051498886,2.8,-0.734201997682));
#519 = VECTOR('',#520,1.);
#520 = DIRECTION('',(0.,-1.,2.22044604925E-16));
#521 = ORIENTED_EDGE('',*,*,#522,.F.);
#522 = EDGE_CURVE('',#403,#515,#523,.T.);
#523 = CIRCLE('',#524,0.1);
#524 = AXIS2_PLACEMENT_3D('',#525,#526,#527);
#525 = CARTESIAN_POINT('',(0.870020767024,2.8,-0.7));
#526 = DIRECTION('',(0.,1.,-2.22044604925E-16));
#527 = DIRECTION('',(0.,-2.22044604925E-16,-1.));
#528 = CYLINDRICAL_SURFACE('',#529,0.1);
#529 = AXIS2_PLACEMENT_3D('',#530,#531,#532);
#530 = CARTESIAN_POINT('',(0.870020767024,2.8,-0.7));
#531 = DIRECTION('',(0.,-1.,2.22044604925E-16));
#532 = DIRECTION('',(-0.,-2.22044604925E-16,-1.));
#533 = ADVANCED_FACE('',(#534),#544,.T.);
#534 = FACE_BOUND('',#535,.T.);
#535 = EDGE_LOOP('',(#536,#537,#543));
#536 = ORIENTED_EDGE('',*,*,#444,.T.);
#537 = ORIENTED_EDGE('',*,*,#538,.T.);
#538 = EDGE_CURVE('',#437,#65,#539,.T.);
#539 = LINE('',#540,#541);
#540 = CARTESIAN_POINT('',(3.2,0.8,0.54));
#541 = VECTOR('',#542,1.);
#542 = DIRECTION('',(-0.707106781187,-0.707106781187,0.));
#543 = ORIENTED_EDGE('',*,*,#64,.F.);
#544 = PLANE('',#545);
#545 = AXIS2_PLACEMENT_3D('',#546,#547,#548);
#546 = CARTESIAN_POINT('',(2.053817024077,1.015091530486,0.54));
#547 = DIRECTION('',(0.,0.,1.));
#548 = DIRECTION('',(1.,0.,-0.));
#549 = ADVANCED_FACE('',(#550),#568,.T.);
#550 = FACE_BOUND('',#551,.T.);
#551 = EDGE_LOOP('',(#552,#560,#561,#562));
#552 = ORIENTED_EDGE('',*,*,#553,.F.);
#553 = EDGE_CURVE('',#515,#554,#556,.T.);
#554 = VERTEX_POINT('',#555);
#555 = CARTESIAN_POINT('',(0.731596004636,2.8,-0.612061463722));
#556 = LINE('',#557,#558);
#557 = CARTESIAN_POINT('',(0.8,2.8,-0.8));
#558 = VECTOR('',#559,1.);
#559 = DIRECTION('',(-0.342019976818,2.0865369019E-16,0.93969268139));
#560 = ORIENTED_EDGE('',*,*,#514,.T.);
#561 = ORIENTED_EDGE('',*,*,#129,.T.);
#562 = ORIENTED_EDGE('',*,*,#563,.F.);
#563 = EDGE_CURVE('',#554,#122,#564,.T.);
#564 = LINE('',#565,#566);
#565 = CARTESIAN_POINT('',(0.731596004636,2.8,-0.612061463722));
#566 = VECTOR('',#567,1.);
#567 = DIRECTION('',(0.,-1.,2.22044604925E-16));
#568 = PLANE('',#569);
#569 = AXIS2_PLACEMENT_3D('',#570,#571,#572);
#570 = CARTESIAN_POINT('',(0.8,2.8,-0.8));
#571 = DIRECTION('',(-0.93969268139,-7.5943690629E-17,-0.342019976818));
#572 = DIRECTION('',(-0.342019976818,2.0865369019E-16,0.93969268139));
#573 = ADVANCED_FACE('',(#574),#585,.F.);
#574 = FACE_BOUND('',#575,.F.);
#575 = EDGE_LOOP('',(#576,#577,#578,#579));
#576 = ORIENTED_EDGE('',*,*,#436,.T.);
#577 = ORIENTED_EDGE('',*,*,#538,.T.);
#578 = ORIENTED_EDGE('',*,*,#72,.F.);
#579 = ORIENTED_EDGE('',*,*,#580,.F.);
#580 = EDGE_CURVE('',#427,#73,#581,.T.);
#581 = LINE('',#582,#583);
#582 = CARTESIAN_POINT('',(3.2,0.8,0.84));
#583 = VECTOR('',#584,1.);
#584 = DIRECTION('',(-0.707106781187,-0.707106781187,0.));
#585 = PLANE('',#586);
#586 = AXIS2_PLACEMENT_3D('',#587,#588,#589);
#587 = CARTESIAN_POINT('',(3.2,0.8,0.84));
#588 = DIRECTION('',(-0.707106781187,0.707106781187,0.));
#589 = DIRECTION('',(-0.707106781187,-0.707106781187,0.));
#590 = ADVANCED_FACE('',(#591),#609,.T.);
#591 = FACE_BOUND('',#592,.T.);
#592 = EDGE_LOOP('',(#593,#601,#602,#603));
#593 = ORIENTED_EDGE('',*,*,#594,.F.);
#594 = EDGE_CURVE('',#554,#595,#597,.T.);
#595 = VERTEX_POINT('',#596);
#596 = CARTESIAN_POINT('',(0.258328703434,2.8,-0.612061463722));
#597 = LINE('',#598,#599);
#598 = CARTESIAN_POINT('',(0.731596004636,2.8,-0.612061463722));
#599 = VECTOR('',#600,1.);
#600 = DIRECTION('',(-1.,0.,0.));
#601 = ORIENTED_EDGE('',*,*,#563,.T.);
#602 = ORIENTED_EDGE('',*,*,#121,.T.);
#603 = ORIENTED_EDGE('',*,*,#604,.F.);
#604 = EDGE_CURVE('',#595,#113,#605,.T.);
#605 = LINE('',#606,#607);
#606 = CARTESIAN_POINT('',(0.258328703434,2.8,-0.612061463722));
#607 = VECTOR('',#608,1.);
#608 = DIRECTION('',(0.,-1.,2.22044604925E-16));
#609 = PLANE('',#610);
#610 = AXIS2_PLACEMENT_3D('',#611,#612,#613);
#611 = CARTESIAN_POINT('',(0.731596004636,2.8,-0.612061463722));
#612 = DIRECTION('',(-0.,-2.22044604925E-16,-1.));
#613 = DIRECTION('',(-1.,0.,0.));
#614 = ADVANCED_FACE('',(#615,#634),#645,.T.);
#615 = FACE_BOUND('',#616,.T.);
#616 = EDGE_LOOP('',(#617,#625,#626,#627,#628));
#617 = ORIENTED_EDGE('',*,*,#618,.T.);
#618 = EDGE_CURVE('',#619,#81,#621,.T.);
#619 = VERTEX_POINT('',#620);
#620 = CARTESIAN_POINT('',(0.,2.8,0.84));
#621 = LINE('',#622,#623);
#622 = CARTESIAN_POINT('',(0.,2.8,0.84));
#623 = VECTOR('',#624,1.);
#624 = DIRECTION('',(0.,-1.,0.));
#625 = ORIENTED_EDGE('',*,*,#80,.T.);
#626 = ORIENTED_EDGE('',*,*,#580,.F.);
#627 = ORIENTED_EDGE('',*,*,#426,.T.);
#628 = ORIENTED_EDGE('',*,*,#629,.T.);
#629 = EDGE_CURVE('',#429,#619,#630,.T.);
#630 = LINE('',#631,#632);
#631 = CARTESIAN_POINT('',(3.2,2.8,0.84));
#632 = VECTOR('',#633,1.);
#633 = DIRECTION('',(-1.,0.,0.));
#634 = FACE_BOUND('',#635,.T.);
#635 = EDGE_LOOP('',(#636));
#636 = ORIENTED_EDGE('',*,*,#637,.F.);
#637 = EDGE_CURVE('',#638,#638,#640,.T.);
#638 = VERTEX_POINT('',#639);
#639 = CARTESIAN_POINT('',(2.6,1.4,0.84));
#640 = CIRCLE('',#641,1.);
#641 = AXIS2_PLACEMENT_3D('',#642,#643,#644);
#642 = CARTESIAN_POINT('',(1.6,1.4,0.84));
#643 = DIRECTION('',(0.,0.,1.));
#644 = DIRECTION('',(1.,0.,-0.));
#645 = PLANE('',#646);
#646 = AXIS2_PLACEMENT_3D('',#647,#648,#649);
#647 = CARTESIAN_POINT('',(1.6,1.4,0.84));
#648 = DIRECTION('',(0.,0.,1.));
#649 = DIRECTION('',(1.,0.,-0.));
#650 = ADVANCED_FACE('',(#651),#670,.T.);
#651 = FACE_BOUND('',#652,.T.);
#652 = EDGE_LOOP('',(#653,#654,#655,#663));
#653 = ORIENTED_EDGE('',*,*,#604,.T.);
#654 = ORIENTED_EDGE('',*,*,#112,.T.);
#655 = ORIENTED_EDGE('',*,*,#656,.F.);
#656 = EDGE_CURVE('',#657,#105,#659,.T.);
#657 = VERTEX_POINT('',#658);
#658 = CARTESIAN_POINT('',(0.161736120805,2.8,-0.537943368232));
#659 = LINE('',#660,#661);
#660 = CARTESIAN_POINT('',(0.161736120805,2.8,-0.537943368232));
#661 = VECTOR('',#662,1.);
#662 = DIRECTION('',(0.,-1.,2.22044604925E-16));
#663 = ORIENTED_EDGE('',*,*,#664,.F.);
#664 = EDGE_CURVE('',#595,#657,#665,.T.);
#665 = CIRCLE('',#666,0.1);
#666 = AXIS2_PLACEMENT_3D('',#667,#668,#669);
#667 = CARTESIAN_POINT('',(0.258328703434,2.8,-0.512061463722));
#668 = DIRECTION('',(-0.,1.,-2.22044604925E-16));
#669 = DIRECTION('',(0.,-2.22044604925E-16,-1.));
#670 = CYLINDRICAL_SURFACE('',#671,0.1);
#671 = AXIS2_PLACEMENT_3D('',#672,#673,#674);
#672 = CARTESIAN_POINT('',(0.258328703434,2.8,-0.512061463722));
#673 = DIRECTION('',(0.,-1.,2.22044604925E-16));
#674 = DIRECTION('',(-0.,-2.22044604925E-16,-1.));
#675 = ADVANCED_FACE('',(#676),#758,.T.);
#676 = FACE_BOUND('',#677,.T.);
#677 = EDGE_LOOP('',(#678,#686,#687,#688,#696,#704,#712,#720,#728,#736,
    #744,#752));
#678 = ORIENTED_EDGE('',*,*,#679,.T.);
#679 = EDGE_CURVE('',#680,#89,#682,.T.);
#680 = VERTEX_POINT('',#681);
#681 = CARTESIAN_POINT('',(0.,0.3,0.));
#682 = LINE('',#683,#684);
#683 = CARTESIAN_POINT('',(0.,2.8,0.));
#684 = VECTOR('',#685,1.);
#685 = DIRECTION('',(0.,-1.,2.22044604925E-16));
#686 = ORIENTED_EDGE('',*,*,#88,.T.);
#687 = ORIENTED_EDGE('',*,*,#618,.F.);
#688 = ORIENTED_EDGE('',*,*,#689,.F.);
#689 = EDGE_CURVE('',#690,#619,#692,.T.);
#690 = VERTEX_POINT('',#691);
#691 = CARTESIAN_POINT('',(0.,2.8,0.));
#692 = LINE('',#693,#694);
#693 = CARTESIAN_POINT('',(0.,2.8,0.));
#694 = VECTOR('',#695,1.);
#695 = DIRECTION('',(0.,0.,1.));
#696 = ORIENTED_EDGE('',*,*,#697,.T.);
#697 = EDGE_CURVE('',#690,#698,#700,.T.);
#698 = VERTEX_POINT('',#699);
#699 = CARTESIAN_POINT('',(0.,2.5,0.));
#700 = LINE('',#701,#702);
#701 = CARTESIAN_POINT('',(0.,2.8,0.));
#702 = VECTOR('',#703,1.);
#703 = DIRECTION('',(0.,-1.,2.22044604925E-16));
#704 = ORIENTED_EDGE('',*,*,#705,.F.);
#705 = EDGE_CURVE('',#706,#698,#708,.T.);
#706 = VERTEX_POINT('',#707);
#707 = CARTESIAN_POINT('',(0.,2.5,0.15));
#708 = LINE('',#709,#710);
#709 = CARTESIAN_POINT('',(0.,2.5,0.15));
#710 = VECTOR('',#711,1.);
#711 = DIRECTION('',(0.,0.,-1.));
#712 = ORIENTED_EDGE('',*,*,#713,.F.);
#713 = EDGE_CURVE('',#714,#706,#716,.T.);
#714 = VERTEX_POINT('',#715);
#715 = CARTESIAN_POINT('',(0.,1.82,0.15));
#716 = LINE('',#717,#718);
#717 = CARTESIAN_POINT('',(0.,1.82,0.15));
#718 = VECTOR('',#719,1.);
#719 = DIRECTION('',(0.,1.,0.));
#720 = ORIENTED_EDGE('',*,*,#721,.F.);
#721 = EDGE_CURVE('',#722,#714,#724,.T.);
#722 = VERTEX_POINT('',#723);
#723 = CARTESIAN_POINT('',(0.,1.82,0.));
#724 = LINE('',#725,#726);
#725 = CARTESIAN_POINT('',(0.,1.82,0.));
#726 = VECTOR('',#727,1.);
#727 = DIRECTION('',(0.,0.,1.));
#728 = ORIENTED_EDGE('',*,*,#729,.T.);
#729 = EDGE_CURVE('',#722,#730,#732,.T.);
#730 = VERTEX_POINT('',#731);
#731 = CARTESIAN_POINT('',(0.,0.98,0.));
#732 = LINE('',#733,#734);
#733 = CARTESIAN_POINT('',(0.,2.8,0.));
#734 = VECTOR('',#735,1.);
#735 = DIRECTION('',(0.,-1.,2.22044604925E-16));
#736 = ORIENTED_EDGE('',*,*,#737,.F.);
#737 = EDGE_CURVE('',#738,#730,#740,.T.);
#738 = VERTEX_POINT('',#739);
#739 = CARTESIAN_POINT('',(0.,0.98,0.15));
#740 = LINE('',#741,#742);
#741 = CARTESIAN_POINT('',(0.,0.98,0.15));
#742 = VECTOR('',#743,1.);
#743 = DIRECTION('',(0.,0.,-1.));
#744 = ORIENTED_EDGE('',*,*,#745,.F.);
#745 = EDGE_CURVE('',#746,#738,#748,.T.);
#746 = VERTEX_POINT('',#747);
#747 = CARTESIAN_POINT('',(0.,0.3,0.15));
#748 = LINE('',#749,#750);
#749 = CARTESIAN_POINT('',(0.,0.3,0.15));
#750 = VECTOR('',#751,1.);
#751 = DIRECTION('',(0.,1.,0.));
#752 = ORIENTED_EDGE('',*,*,#753,.F.);
#753 = EDGE_CURVE('',#680,#746,#754,.T.);
#754 = LINE('',#755,#756);
#755 = CARTESIAN_POINT('',(0.,0.3,0.));
#756 = VECTOR('',#757,1.);
#757 = DIRECTION('',(0.,0.,1.));
#758 = PLANE('',#759);
#759 = AXIS2_PLACEMENT_3D('',#760,#761,#762);
#760 = CARTESIAN_POINT('',(0.,1.4,2.E-02));
#761 = DIRECTION('',(-1.,-0.,-0.));
#762 = DIRECTION('',(0.,0.,-1.));
#763 = ADVANCED_FACE('',(#764),#782,.T.);
#764 = FACE_BOUND('',#765,.T.);
#765 = EDGE_LOOP('',(#766,#774,#775,#776));
#766 = ORIENTED_EDGE('',*,*,#767,.F.);
#767 = EDGE_CURVE('',#657,#768,#770,.T.);
#768 = VERTEX_POINT('',#769);
#769 = CARTESIAN_POINT('',(1.759462971387E-02,2.8,0.));
#770 = LINE('',#771,#772);
#771 = CARTESIAN_POINT('',(0.181596004636,2.8,-0.612061463722));
#772 = VECTOR('',#773,1.);
#773 = DIRECTION('',(-0.258819045103,2.144786184852E-16,0.965925826289)
  );
#774 = ORIENTED_EDGE('',*,*,#656,.T.);
#775 = ORIENTED_EDGE('',*,*,#104,.T.);
#776 = ORIENTED_EDGE('',*,*,#777,.F.);
#777 = EDGE_CURVE('',#768,#97,#778,.T.);
#778 = LINE('',#779,#780);
#779 = CARTESIAN_POINT('',(1.759462971387E-02,2.8,0.));
#780 = VECTOR('',#781,1.);
#781 = DIRECTION('',(0.,-1.,2.22044604925E-16));
#782 = PLANE('',#783);
#783 = AXIS2_PLACEMENT_3D('',#784,#785,#786);
#784 = CARTESIAN_POINT('',(0.181596004636,2.8,-0.612061463722));
#785 = DIRECTION('',(-0.965925826289,-5.746937261686E-17,-0.258819045103
    ));
#786 = DIRECTION('',(-0.258819045103,2.144786184852E-16,0.965925826289)
  );
#787 = ADVANCED_FACE('',(#788),#845,.T.);
#788 = FACE_BOUND('',#789,.T.);
#789 = EDGE_LOOP('',(#790,#791,#792,#793,#801,#809,#815,#816,#824,#832,
    #838,#839));
#790 = ORIENTED_EDGE('',*,*,#777,.T.);
#791 = ORIENTED_EDGE('',*,*,#96,.T.);
#792 = ORIENTED_EDGE('',*,*,#679,.F.);
#793 = ORIENTED_EDGE('',*,*,#794,.T.);
#794 = EDGE_CURVE('',#680,#795,#797,.T.);
#795 = VERTEX_POINT('',#796);
#796 = CARTESIAN_POINT('',(-1.24,0.3,0.));
#797 = LINE('',#798,#799);
#798 = CARTESIAN_POINT('',(0.,0.3,0.));
#799 = VECTOR('',#800,1.);
#800 = DIRECTION('',(-1.,0.,0.));
#801 = ORIENTED_EDGE('',*,*,#802,.F.);
#802 = EDGE_CURVE('',#803,#795,#805,.T.);
#803 = VERTEX_POINT('',#804);
#804 = CARTESIAN_POINT('',(-1.24,0.98,0.));
#805 = LINE('',#806,#807);
#806 = CARTESIAN_POINT('',(-1.24,0.98,0.));
#807 = VECTOR('',#808,1.);
#808 = DIRECTION('',(0.,-1.,0.));
#809 = ORIENTED_EDGE('',*,*,#810,.F.);
#810 = EDGE_CURVE('',#730,#803,#811,.T.);
#811 = LINE('',#812,#813);
#812 = CARTESIAN_POINT('',(0.,0.98,0.));
#813 = VECTOR('',#814,1.);
#814 = DIRECTION('',(-1.,0.,0.));
#815 = ORIENTED_EDGE('',*,*,#729,.F.);
#816 = ORIENTED_EDGE('',*,*,#817,.T.);
#817 = EDGE_CURVE('',#722,#818,#820,.T.);
#818 = VERTEX_POINT('',#819);
#819 = CARTESIAN_POINT('',(-1.24,1.82,0.));
#820 = LINE('',#821,#822);
#821 = CARTESIAN_POINT('',(0.,1.82,0.));
#822 = VECTOR('',#823,1.);
#823 = DIRECTION('',(-1.,0.,0.));
#824 = ORIENTED_EDGE('',*,*,#825,.F.);
#825 = EDGE_CURVE('',#826,#818,#828,.T.);
#826 = VERTEX_POINT('',#827);
#827 = CARTESIAN_POINT('',(-1.24,2.5,0.));
#828 = LINE('',#829,#830);
#829 = CARTESIAN_POINT('',(-1.24,2.5,0.));
#830 = VECTOR('',#831,1.);
#831 = DIRECTION('',(0.,-1.,0.));
#832 = ORIENTED_EDGE('',*,*,#833,.F.);
#833 = EDGE_CURVE('',#698,#826,#834,.T.);
#834 = LINE('',#835,#836);
#835 = CARTESIAN_POINT('',(0.,2.5,0.));
#836 = VECTOR('',#837,1.);
#837 = DIRECTION('',(-1.,0.,0.));
#838 = ORIENTED_EDGE('',*,*,#697,.F.);
#839 = ORIENTED_EDGE('',*,*,#840,.F.);
#840 = EDGE_CURVE('',#768,#690,#841,.T.);
#841 = LINE('',#842,#843);
#842 = CARTESIAN_POINT('',(1.759462971387E-02,2.8,0.));
#843 = VECTOR('',#844,1.);
#844 = DIRECTION('',(-1.,0.,0.));
#845 = PLANE('',#846);
#846 = AXIS2_PLACEMENT_3D('',#847,#848,#849);
#847 = CARTESIAN_POINT('',(-0.444732543273,1.4,1.254338890589E-16));
#848 = DIRECTION('',(-0.,-0.,-1.));
#849 = DIRECTION('',(-1.,0.,0.));
#850 = ADVANCED_FACE('',(#851),#869,.T.);
#851 = FACE_BOUND('',#852,.T.);
#852 = EDGE_LOOP('',(#853,#854,#855,#856,#857,#858,#859,#860,#861,#862,
    #863,#864,#865,#866,#867,#868));
#853 = ORIENTED_EDGE('',*,*,#594,.T.);
#854 = ORIENTED_EDGE('',*,*,#664,.T.);
#855 = ORIENTED_EDGE('',*,*,#767,.T.);
#856 = ORIENTED_EDGE('',*,*,#840,.T.);
#857 = ORIENTED_EDGE('',*,*,#689,.T.);
#858 = ORIENTED_EDGE('',*,*,#629,.F.);
#859 = ORIENTED_EDGE('',*,*,#498,.T.);
#860 = ORIENTED_EDGE('',*,*,#307,.F.);
#861 = ORIENTED_EDGE('',*,*,#257,.F.);
#862 = ORIENTED_EDGE('',*,*,#208,.F.);
#863 = ORIENTED_EDGE('',*,*,#177,.F.);
#864 = ORIENTED_EDGE('',*,*,#233,.F.);
#865 = ORIENTED_EDGE('',*,*,#291,.T.);
#866 = ORIENTED_EDGE('',*,*,#402,.F.);
#867 = ORIENTED_EDGE('',*,*,#522,.T.);
#868 = ORIENTED_EDGE('',*,*,#553,.T.);
#869 = PLANE('',#870);
#870 = AXIS2_PLACEMENT_3D('',#871,#872,#873);
#871 = CARTESIAN_POINT('',(1.6,2.8,2.E-02));
#872 = DIRECTION('',(0.,1.,0.));
#873 = DIRECTION('',(0.,-0.,1.));
#874 = ADVANCED_FACE('',(#875),#893,.F.);
#875 = FACE_BOUND('',#876,.F.);
#876 = EDGE_LOOP('',(#877,#878,#886,#892));
#877 = ORIENTED_EDGE('',*,*,#323,.T.);
#878 = ORIENTED_EDGE('',*,*,#879,.T.);
#879 = EDGE_CURVE('',#324,#880,#882,.T.);
#880 = VERTEX_POINT('',#881);
#881 = CARTESIAN_POINT('',(4.54,2.5,0.15));
#882 = LINE('',#883,#884);
#883 = CARTESIAN_POINT('',(4.54,2.5,0.));
#884 = VECTOR('',#885,1.);
#885 = DIRECTION('',(0.,0.,1.));
#886 = ORIENTED_EDGE('',*,*,#887,.F.);
#887 = EDGE_CURVE('',#484,#880,#888,.T.);
#888 = LINE('',#889,#890);
#889 = CARTESIAN_POINT('',(3.2,2.5,0.15));
#890 = VECTOR('',#891,1.);
#891 = DIRECTION('',(1.,0.,0.));
#892 = ORIENTED_EDGE('',*,*,#491,.F.);
#893 = PLANE('',#894);
#894 = AXIS2_PLACEMENT_3D('',#895,#896,#897);
#895 = CARTESIAN_POINT('',(3.2,2.5,0.));
#896 = DIRECTION('',(0.,-1.,0.));
#897 = DIRECTION('',(0.,0.,1.));
#898 = ADVANCED_FACE('',(#899),#917,.T.);
#899 = FACE_BOUND('',#900,.T.);
#900 = EDGE_LOOP('',(#901,#902,#910,#916));
#901 = ORIENTED_EDGE('',*,*,#879,.T.);
#902 = ORIENTED_EDGE('',*,*,#903,.T.);
#903 = EDGE_CURVE('',#880,#904,#906,.T.);
#904 = VERTEX_POINT('',#905);
#905 = CARTESIAN_POINT('',(4.54,1.82,0.15));
#906 = LINE('',#907,#908);
#907 = CARTESIAN_POINT('',(4.54,2.5,0.15));
#908 = VECTOR('',#909,1.);
#909 = DIRECTION('',(0.,-1.,0.));
#910 = ORIENTED_EDGE('',*,*,#911,.T.);
#911 = EDGE_CURVE('',#904,#332,#912,.T.);
#912 = LINE('',#913,#914);
#913 = CARTESIAN_POINT('',(4.54,1.82,0.15));
#914 = VECTOR('',#915,1.);
#915 = DIRECTION('',(0.,0.,-1.));
#916 = ORIENTED_EDGE('',*,*,#331,.T.);
#917 = PLANE('',#918);
#918 = AXIS2_PLACEMENT_3D('',#919,#920,#921);
#919 = CARTESIAN_POINT('',(4.54,1.4,7.5E-02));
#920 = DIRECTION('',(1.,0.,0.));
#921 = DIRECTION('',(0.,0.,1.));
#922 = ADVANCED_FACE('',(#923),#934,.F.);
#923 = FACE_BOUND('',#924,.F.);
#924 = EDGE_LOOP('',(#925,#931,#932,#933));
#925 = ORIENTED_EDGE('',*,*,#926,.T.);
#926 = EDGE_CURVE('',#476,#904,#927,.T.);
#927 = LINE('',#928,#929);
#928 = CARTESIAN_POINT('',(3.2,1.82,0.15));
#929 = VECTOR('',#930,1.);
#930 = DIRECTION('',(1.,0.,0.));
#931 = ORIENTED_EDGE('',*,*,#911,.T.);
#932 = ORIENTED_EDGE('',*,*,#339,.F.);
#933 = ORIENTED_EDGE('',*,*,#475,.F.);
#934 = PLANE('',#935);
#935 = AXIS2_PLACEMENT_3D('',#936,#937,#938);
#936 = CARTESIAN_POINT('',(3.2,1.82,0.15));
#937 = DIRECTION('',(0.,1.,0.));
#938 = DIRECTION('',(0.,0.,-1.));
#939 = ADVANCED_FACE('',(#940),#958,.F.);
#940 = FACE_BOUND('',#941,.F.);
#941 = EDGE_LOOP('',(#942,#943,#951,#957));
#942 = ORIENTED_EDGE('',*,*,#355,.T.);
#943 = ORIENTED_EDGE('',*,*,#944,.T.);
#944 = EDGE_CURVE('',#356,#945,#947,.T.);
#945 = VERTEX_POINT('',#946);
#946 = CARTESIAN_POINT('',(4.54,0.98,0.15));
#947 = LINE('',#948,#949);
#948 = CARTESIAN_POINT('',(4.54,0.98,0.));
#949 = VECTOR('',#950,1.);
#950 = DIRECTION('',(0.,0.,1.));
#951 = ORIENTED_EDGE('',*,*,#952,.F.);
#952 = EDGE_CURVE('',#461,#945,#953,.T.);
#953 = LINE('',#954,#955);
#954 = CARTESIAN_POINT('',(3.2,0.98,0.15));
#955 = VECTOR('',#956,1.);
#956 = DIRECTION('',(1.,0.,0.));
#957 = ORIENTED_EDGE('',*,*,#468,.F.);
#958 = PLANE('',#959);
#959 = AXIS2_PLACEMENT_3D('',#960,#961,#962);
#960 = CARTESIAN_POINT('',(3.2,0.98,0.));
#961 = DIRECTION('',(0.,-1.,0.));
#962 = DIRECTION('',(0.,0.,1.));
#963 = ADVANCED_FACE('',(#964),#982,.T.);
#964 = FACE_BOUND('',#965,.T.);
#965 = EDGE_LOOP('',(#966,#974,#975,#976));
#966 = ORIENTED_EDGE('',*,*,#967,.T.);
#967 = EDGE_CURVE('',#968,#364,#970,.T.);
#968 = VERTEX_POINT('',#969);
#969 = CARTESIAN_POINT('',(4.54,0.64,0.15));
#970 = LINE('',#971,#972);
#971 = CARTESIAN_POINT('',(4.54,0.64,0.15));
#972 = VECTOR('',#973,1.);
#973 = DIRECTION('',(-0.,-0.,-1.));
#974 = ORIENTED_EDGE('',*,*,#363,.T.);
#975 = ORIENTED_EDGE('',*,*,#944,.T.);
#976 = ORIENTED_EDGE('',*,*,#977,.T.);
#977 = EDGE_CURVE('',#945,#968,#978,.T.);
#978 = LINE('',#979,#980);
#979 = CARTESIAN_POINT('',(4.54,0.98,0.15));
#980 = VECTOR('',#981,1.);
#981 = DIRECTION('',(0.,-1.,0.));
#982 = PLANE('',#983);
#983 = AXIS2_PLACEMENT_3D('',#984,#985,#986);
#984 = CARTESIAN_POINT('',(4.54,1.4,7.5E-02));
#985 = DIRECTION('',(1.,0.,0.));
#986 = DIRECTION('',(0.,0.,1.));
#987 = ADVANCED_FACE('',(#988),#1006,.F.);
#988 = FACE_BOUND('',#989,.F.);
#989 = EDGE_LOOP('',(#990,#991,#992,#1000));
#990 = ORIENTED_EDGE('',*,*,#967,.T.);
#991 = ORIENTED_EDGE('',*,*,#371,.T.);
#992 = ORIENTED_EDGE('',*,*,#993,.F.);
#993 = EDGE_CURVE('',#994,#372,#996,.T.);
#994 = VERTEX_POINT('',#995);
#995 = CARTESIAN_POINT('',(4.2,0.3,0.15));
#996 = LINE('',#997,#998);
#997 = CARTESIAN_POINT('',(4.2,0.3,0.15));
#998 = VECTOR('',#999,1.);
#999 = DIRECTION('',(-0.,-0.,-1.));
#1000 = ORIENTED_EDGE('',*,*,#1001,.F.);
#1001 = EDGE_CURVE('',#968,#994,#1002,.T.);
#1002 = LINE('',#1003,#1004);
#1003 = CARTESIAN_POINT('',(4.54,0.64,0.15));
#1004 = VECTOR('',#1005,1.);
#1005 = DIRECTION('',(-0.707106781187,-0.707106781187,0.));
#1006 = PLANE('',#1007);
#1007 = AXIS2_PLACEMENT_3D('',#1008,#1009,#1010);
#1008 = CARTESIAN_POINT('',(4.54,0.64,0.15));
#1009 = DIRECTION('',(-0.707106781187,0.707106781187,0.));
#1010 = DIRECTION('',(-0.707106781187,-0.707106781187,0.));
#1011 = ADVANCED_FACE('',(#1012),#1023,.F.);
#1012 = FACE_BOUND('',#1013,.F.);
#1013 = EDGE_LOOP('',(#1014,#1015,#1021,#1022));
#1014 = ORIENTED_EDGE('',*,*,#452,.F.);
#1015 = ORIENTED_EDGE('',*,*,#1016,.T.);
#1016 = EDGE_CURVE('',#453,#994,#1017,.T.);
#1017 = LINE('',#1018,#1019);
#1018 = CARTESIAN_POINT('',(3.2,0.3,0.15));
#1019 = VECTOR('',#1020,1.);
#1020 = DIRECTION('',(1.,0.,0.));
#1021 = ORIENTED_EDGE('',*,*,#993,.T.);
#1022 = ORIENTED_EDGE('',*,*,#379,.F.);
#1023 = PLANE('',#1024);
#1024 = AXIS2_PLACEMENT_3D('',#1025,#1026,#1027);
#1025 = CARTESIAN_POINT('',(3.2,0.3,0.15));
#1026 = DIRECTION('',(0.,1.,0.));
#1027 = DIRECTION('',(0.,0.,-1.));
#1028 = ADVANCED_FACE('',(#1029),#1035,.F.);
#1029 = FACE_BOUND('',#1030,.F.);
#1030 = EDGE_LOOP('',(#1031,#1032,#1033,#1034));
#1031 = ORIENTED_EDGE('',*,*,#887,.T.);
#1032 = ORIENTED_EDGE('',*,*,#903,.T.);
#1033 = ORIENTED_EDGE('',*,*,#926,.F.);
#1034 = ORIENTED_EDGE('',*,*,#483,.F.);
#1035 = PLANE('',#1036);
#1036 = AXIS2_PLACEMENT_3D('',#1037,#1038,#1039);
#1037 = CARTESIAN_POINT('',(3.2,2.5,0.15));
#1038 = DIRECTION('',(0.,0.,-1.));
#1039 = DIRECTION('',(0.,-1.,0.));
#1040 = ADVANCED_FACE('',(#1041),#1048,.F.);
#1041 = FACE_BOUND('',#1042,.F.);
#1042 = EDGE_LOOP('',(#1043,#1044,#1045,#1046,#1047));
#1043 = ORIENTED_EDGE('',*,*,#460,.F.);
#1044 = ORIENTED_EDGE('',*,*,#952,.T.);
#1045 = ORIENTED_EDGE('',*,*,#977,.T.);
#1046 = ORIENTED_EDGE('',*,*,#1001,.T.);
#1047 = ORIENTED_EDGE('',*,*,#1016,.F.);
#1048 = PLANE('',#1049);
#1049 = AXIS2_PLACEMENT_3D('',#1050,#1051,#1052);
#1050 = CARTESIAN_POINT('',(3.2,0.98,0.15));
#1051 = DIRECTION('',(0.,0.,-1.));
#1052 = DIRECTION('',(0.,-1.,0.));
#1053 = ADVANCED_FACE('',(#1054),#1073,.F.);
#1054 = FACE_BOUND('',#1055,.F.);
#1055 = EDGE_LOOP('',(#1056,#1064,#1071,#1072));
#1056 = ORIENTED_EDGE('',*,*,#1057,.T.);
#1057 = EDGE_CURVE('',#638,#1058,#1060,.T.);
#1058 = VERTEX_POINT('',#1059);
#1059 = CARTESIAN_POINT('',(2.6,1.4,0.54));
#1060 = LINE('',#1061,#1062);
#1061 = CARTESIAN_POINT('',(2.6,1.4,0.84));
#1062 = VECTOR('',#1063,1.);
#1063 = DIRECTION('',(-0.,-0.,-1.));
#1064 = ORIENTED_EDGE('',*,*,#1065,.T.);
#1065 = EDGE_CURVE('',#1058,#1058,#1066,.T.);
#1066 = CIRCLE('',#1067,1.);
#1067 = AXIS2_PLACEMENT_3D('',#1068,#1069,#1070);
#1068 = CARTESIAN_POINT('',(1.6,1.4,0.54));
#1069 = DIRECTION('',(0.,0.,1.));
#1070 = DIRECTION('',(1.,0.,-0.));
#1071 = ORIENTED_EDGE('',*,*,#1057,.F.);
#1072 = ORIENTED_EDGE('',*,*,#637,.F.);
#1073 = CYLINDRICAL_SURFACE('',#1074,1.);
#1074 = AXIS2_PLACEMENT_3D('',#1075,#1076,#1077);
#1075 = CARTESIAN_POINT('',(1.6,1.4,0.84));
#1076 = DIRECTION('',(0.,0.,1.));
#1077 = DIRECTION('',(1.,0.,-0.));
#1078 = ADVANCED_FACE('',(#1079),#1097,.F.);
#1079 = FACE_BOUND('',#1080,.F.);
#1080 = EDGE_LOOP('',(#1081,#1082,#1090,#1096));
#1081 = ORIENTED_EDGE('',*,*,#794,.T.);
#1082 = ORIENTED_EDGE('',*,*,#1083,.T.);
#1083 = EDGE_CURVE('',#795,#1084,#1086,.T.);
#1084 = VERTEX_POINT('',#1085);
#1085 = CARTESIAN_POINT('',(-1.24,0.3,0.15));
#1086 = LINE('',#1087,#1088);
#1087 = CARTESIAN_POINT('',(-1.24,0.3,0.));
#1088 = VECTOR('',#1089,1.);
#1089 = DIRECTION('',(0.,0.,1.));
#1090 = ORIENTED_EDGE('',*,*,#1091,.F.);
#1091 = EDGE_CURVE('',#746,#1084,#1092,.T.);
#1092 = LINE('',#1093,#1094);
#1093 = CARTESIAN_POINT('',(0.,0.3,0.15));
#1094 = VECTOR('',#1095,1.);
#1095 = DIRECTION('',(-1.,0.,0.));
#1096 = ORIENTED_EDGE('',*,*,#753,.F.);
#1097 = PLANE('',#1098);
#1098 = AXIS2_PLACEMENT_3D('',#1099,#1100,#1101);
#1099 = CARTESIAN_POINT('',(0.,0.3,0.));
#1100 = DIRECTION('',(0.,1.,0.));
#1101 = DIRECTION('',(0.,-0.,1.));
#1102 = ADVANCED_FACE('',(#1103),#1121,.F.);
#1103 = FACE_BOUND('',#1104,.F.);
#1104 = EDGE_LOOP('',(#1105,#1106,#1114,#1120));
#1105 = ORIENTED_EDGE('',*,*,#1091,.T.);
#1106 = ORIENTED_EDGE('',*,*,#1107,.T.);
#1107 = EDGE_CURVE('',#1084,#1108,#1110,.T.);
#1108 = VERTEX_POINT('',#1109);
#1109 = CARTESIAN_POINT('',(-1.24,0.98,0.15));
#1110 = LINE('',#1111,#1112);
#1111 = CARTESIAN_POINT('',(-1.24,0.3,0.15));
#1112 = VECTOR('',#1113,1.);
#1113 = DIRECTION('',(0.,1.,0.));
#1114 = ORIENTED_EDGE('',*,*,#1115,.F.);
#1115 = EDGE_CURVE('',#738,#1108,#1116,.T.);
#1116 = LINE('',#1117,#1118);
#1117 = CARTESIAN_POINT('',(0.,0.98,0.15));
#1118 = VECTOR('',#1119,1.);
#1119 = DIRECTION('',(-1.,0.,0.));
#1120 = ORIENTED_EDGE('',*,*,#745,.F.);
#1121 = PLANE('',#1122);
#1122 = AXIS2_PLACEMENT_3D('',#1123,#1124,#1125);
#1123 = CARTESIAN_POINT('',(0.,0.3,0.15));
#1124 = DIRECTION('',(0.,0.,-1.));
#1125 = DIRECTION('',(0.,1.,0.));
#1126 = ADVANCED_FACE('',(#1127),#1138,.F.);
#1127 = FACE_BOUND('',#1128,.F.);
#1128 = EDGE_LOOP('',(#1129,#1130,#1136,#1137));
#1129 = ORIENTED_EDGE('',*,*,#1115,.T.);
#1130 = ORIENTED_EDGE('',*,*,#1131,.T.);
#1131 = EDGE_CURVE('',#1108,#803,#1132,.T.);
#1132 = LINE('',#1133,#1134);
#1133 = CARTESIAN_POINT('',(-1.24,0.98,0.15));
#1134 = VECTOR('',#1135,1.);
#1135 = DIRECTION('',(0.,0.,-1.));
#1136 = ORIENTED_EDGE('',*,*,#810,.F.);
#1137 = ORIENTED_EDGE('',*,*,#737,.F.);
#1138 = PLANE('',#1139);
#1139 = AXIS2_PLACEMENT_3D('',#1140,#1141,#1142);
#1140 = CARTESIAN_POINT('',(0.,0.98,0.15));
#1141 = DIRECTION('',(-0.,-1.,-0.));
#1142 = DIRECTION('',(0.,0.,-1.));
#1143 = ADVANCED_FACE('',(#1144),#1162,.F.);
#1144 = FACE_BOUND('',#1145,.F.);
#1145 = EDGE_LOOP('',(#1146,#1147,#1155,#1161));
#1146 = ORIENTED_EDGE('',*,*,#817,.T.);
#1147 = ORIENTED_EDGE('',*,*,#1148,.T.);
#1148 = EDGE_CURVE('',#818,#1149,#1151,.T.);
#1149 = VERTEX_POINT('',#1150);
#1150 = CARTESIAN_POINT('',(-1.24,1.82,0.15));
#1151 = LINE('',#1152,#1153);
#1152 = CARTESIAN_POINT('',(-1.24,1.82,0.));
#1153 = VECTOR('',#1154,1.);
#1154 = DIRECTION('',(0.,0.,1.));
#1155 = ORIENTED_EDGE('',*,*,#1156,.F.);
#1156 = EDGE_CURVE('',#714,#1149,#1157,.T.);
#1157 = LINE('',#1158,#1159);
#1158 = CARTESIAN_POINT('',(0.,1.82,0.15));
#1159 = VECTOR('',#1160,1.);
#1160 = DIRECTION('',(-1.,0.,0.));
#1161 = ORIENTED_EDGE('',*,*,#721,.F.);
#1162 = PLANE('',#1163);
#1163 = AXIS2_PLACEMENT_3D('',#1164,#1165,#1166);
#1164 = CARTESIAN_POINT('',(0.,1.82,0.));
#1165 = DIRECTION('',(0.,1.,0.));
#1166 = DIRECTION('',(0.,-0.,1.));
#1167 = ADVANCED_FACE('',(#1168),#1186,.F.);
#1168 = FACE_BOUND('',#1169,.F.);
#1169 = EDGE_LOOP('',(#1170,#1171,#1179,#1185));
#1170 = ORIENTED_EDGE('',*,*,#1156,.T.);
#1171 = ORIENTED_EDGE('',*,*,#1172,.T.);
#1172 = EDGE_CURVE('',#1149,#1173,#1175,.T.);
#1173 = VERTEX_POINT('',#1174);
#1174 = CARTESIAN_POINT('',(-1.24,2.5,0.15));
#1175 = LINE('',#1176,#1177);
#1176 = CARTESIAN_POINT('',(-1.24,1.82,0.15));
#1177 = VECTOR('',#1178,1.);
#1178 = DIRECTION('',(0.,1.,0.));
#1179 = ORIENTED_EDGE('',*,*,#1180,.F.);
#1180 = EDGE_CURVE('',#706,#1173,#1181,.T.);
#1181 = LINE('',#1182,#1183);
#1182 = CARTESIAN_POINT('',(0.,2.5,0.15));
#1183 = VECTOR('',#1184,1.);
#1184 = DIRECTION('',(-1.,0.,0.));
#1185 = ORIENTED_EDGE('',*,*,#713,.F.);
#1186 = PLANE('',#1187);
#1187 = AXIS2_PLACEMENT_3D('',#1188,#1189,#1190);
#1188 = CARTESIAN_POINT('',(0.,1.82,0.15));
#1189 = DIRECTION('',(0.,0.,-1.));
#1190 = DIRECTION('',(0.,1.,0.));
#1191 = ADVANCED_FACE('',(#1192),#1203,.F.);
#1192 = FACE_BOUND('',#1193,.F.);
#1193 = EDGE_LOOP('',(#1194,#1195,#1201,#1202));
#1194 = ORIENTED_EDGE('',*,*,#1180,.T.);
#1195 = ORIENTED_EDGE('',*,*,#1196,.T.);
#1196 = EDGE_CURVE('',#1173,#826,#1197,.T.);
#1197 = LINE('',#1198,#1199);
#1198 = CARTESIAN_POINT('',(-1.24,2.5,0.15));
#1199 = VECTOR('',#1200,1.);
#1200 = DIRECTION('',(0.,0.,-1.));
#1201 = ORIENTED_EDGE('',*,*,#833,.F.);
#1202 = ORIENTED_EDGE('',*,*,#705,.F.);
#1203 = PLANE('',#1204);
#1204 = AXIS2_PLACEMENT_3D('',#1205,#1206,#1207);
#1205 = CARTESIAN_POINT('',(0.,2.5,0.15));
#1206 = DIRECTION('',(-0.,-1.,-0.));
#1207 = DIRECTION('',(0.,0.,-1.));
#1208 = ADVANCED_FACE('',(#1209),#1215,.F.);
#1209 = FACE_BOUND('',#1210,.T.);
#1210 = EDGE_LOOP('',(#1211,#1212,#1213,#1214));
#1211 = ORIENTED_EDGE('',*,*,#1083,.T.);
#1212 = ORIENTED_EDGE('',*,*,#1107,.T.);
#1213 = ORIENTED_EDGE('',*,*,#1131,.T.);
#1214 = ORIENTED_EDGE('',*,*,#802,.T.);
#1215 = PLANE('',#1216);
#1216 = AXIS2_PLACEMENT_3D('',#1217,#1218,#1219);
#1217 = CARTESIAN_POINT('',(-1.24,1.4,7.5E-02));
#1218 = DIRECTION('',(1.,0.,0.));
#1219 = DIRECTION('',(0.,0.,1.));
#1220 = ADVANCED_FACE('',(#1221),#1227,.F.);
#1221 = FACE_BOUND('',#1222,.T.);
#1222 = EDGE_LOOP('',(#1223,#1224,#1225,#1226));
#1223 = ORIENTED_EDGE('',*,*,#1196,.T.);
#1224 = ORIENTED_EDGE('',*,*,#825,.T.);
#1225 = ORIENTED_EDGE('',*,*,#1148,.T.);
#1226 = ORIENTED_EDGE('',*,*,#1172,.T.);
#1227 = PLANE('',#1228);
#1228 = AXIS2_PLACEMENT_3D('',#1229,#1230,#1231);
#1229 = CARTESIAN_POINT('',(-1.24,1.4,7.5E-02));
#1230 = DIRECTION('',(1.,0.,0.));
#1231 = DIRECTION('',(0.,0.,1.));
#1232 = ADVANCED_FACE('',(#1233,#1236,#1270,#1304,#1338),#1372,.T.);
#1233 = FACE_BOUND('',#1234,.T.);
#1234 = EDGE_LOOP('',(#1235));
#1235 = ORIENTED_EDGE('',*,*,#1065,.T.);
#1236 = FACE_BOUND('',#1237,.T.);
#1237 = EDGE_LOOP('',(#1238,#1248,#1256,#1264));
#1238 = ORIENTED_EDGE('',*,*,#1239,.F.);
#1239 = EDGE_CURVE('',#1240,#1242,#1244,.T.);
#1240 = VERTEX_POINT('',#1241);
#1241 = CARTESIAN_POINT('',(1.306004,1.055072,0.54));
#1242 = VERTEX_POINT('',#1243);
#1243 = CARTESIAN_POINT('',(1.306004,0.855072,0.54));
#1244 = LINE('',#1245,#1246);
#1245 = CARTESIAN_POINT('',(1.306004,1.055072,0.54));
#1246 = VECTOR('',#1247,1.);
#1247 = DIRECTION('',(0.,-1.,0.));
#1248 = ORIENTED_EDGE('',*,*,#1249,.F.);
#1249 = EDGE_CURVE('',#1250,#1240,#1252,.T.);
#1250 = VERTEX_POINT('',#1251);
#1251 = CARTESIAN_POINT('',(1.506004,1.055072,0.54));
#1252 = LINE('',#1253,#1254);
#1253 = CARTESIAN_POINT('',(1.506004,1.055072,0.54));
#1254 = VECTOR('',#1255,1.);
#1255 = DIRECTION('',(-1.,0.,0.));
#1256 = ORIENTED_EDGE('',*,*,#1257,.F.);
#1257 = EDGE_CURVE('',#1258,#1250,#1260,.T.);
#1258 = VERTEX_POINT('',#1259);
#1259 = CARTESIAN_POINT('',(1.506004,0.855072,0.54));
#1260 = LINE('',#1261,#1262);
#1261 = CARTESIAN_POINT('',(1.506004,0.855072,0.54));
#1262 = VECTOR('',#1263,1.);
#1263 = DIRECTION('',(0.,1.,0.));
#1264 = ORIENTED_EDGE('',*,*,#1265,.F.);
#1265 = EDGE_CURVE('',#1242,#1258,#1266,.T.);
#1266 = LINE('',#1267,#1268);
#1267 = CARTESIAN_POINT('',(1.306004,0.855072,0.54));
#1268 = VECTOR('',#1269,1.);
#1269 = DIRECTION('',(1.,0.,0.));
#1270 = FACE_BOUND('',#1271,.T.);
#1271 = EDGE_LOOP('',(#1272,#1282,#1290,#1298));
#1272 = ORIENTED_EDGE('',*,*,#1273,.F.);
#1273 = EDGE_CURVE('',#1274,#1276,#1278,.T.);
#1274 = VERTEX_POINT('',#1275);
#1275 = CARTESIAN_POINT('',(1.796011,1.581469,0.54));
#1276 = VERTEX_POINT('',#1277);
#1277 = CARTESIAN_POINT('',(1.796011,1.231469,0.54));
#1278 = LINE('',#1279,#1280);
#1279 = CARTESIAN_POINT('',(1.796011,1.581469,0.54));
#1280 = VECTOR('',#1281,1.);
#1281 = DIRECTION('',(0.,-1.,0.));
#1282 = ORIENTED_EDGE('',*,*,#1283,.F.);
#1283 = EDGE_CURVE('',#1284,#1274,#1286,.T.);
#1284 = VERTEX_POINT('',#1285);
#1285 = CARTESIAN_POINT('',(2.196011,1.581469,0.54));
#1286 = LINE('',#1287,#1288);
#1287 = CARTESIAN_POINT('',(2.196011,1.581469,0.54));
#1288 = VECTOR('',#1289,1.);
#1289 = DIRECTION('',(-1.,0.,0.));
#1290 = ORIENTED_EDGE('',*,*,#1291,.F.);
#1291 = EDGE_CURVE('',#1292,#1284,#1294,.T.);
#1292 = VERTEX_POINT('',#1293);
#1293 = CARTESIAN_POINT('',(2.196011,1.231469,0.54));
#1294 = LINE('',#1295,#1296);
#1295 = CARTESIAN_POINT('',(2.196011,1.231469,0.54));
#1296 = VECTOR('',#1297,1.);
#1297 = DIRECTION('',(0.,1.,0.));
#1298 = ORIENTED_EDGE('',*,*,#1299,.F.);
#1299 = EDGE_CURVE('',#1276,#1292,#1300,.T.);
#1300 = LINE('',#1301,#1302);
#1301 = CARTESIAN_POINT('',(1.796011,1.231469,0.54));
#1302 = VECTOR('',#1303,1.);
#1303 = DIRECTION('',(1.,0.,0.));
#1304 = FACE_BOUND('',#1305,.T.);
#1305 = EDGE_LOOP('',(#1306,#1316,#1324,#1332));
#1306 = ORIENTED_EDGE('',*,*,#1307,.F.);
#1307 = EDGE_CURVE('',#1308,#1310,#1312,.T.);
#1308 = VERTEX_POINT('',#1309);
#1309 = CARTESIAN_POINT('',(1.010678,1.510176,0.54));
#1310 = VERTEX_POINT('',#1311);
#1311 = CARTESIAN_POINT('',(1.010678,1.310176,0.54));
#1312 = LINE('',#1313,#1314);
#1313 = CARTESIAN_POINT('',(1.010678,1.510176,0.54));
#1314 = VECTOR('',#1315,1.);
#1315 = DIRECTION('',(0.,-1.,0.));
#1316 = ORIENTED_EDGE('',*,*,#1317,.F.);
#1317 = EDGE_CURVE('',#1318,#1308,#1320,.T.);
#1318 = VERTEX_POINT('',#1319);
#1319 = CARTESIAN_POINT('',(1.210678,1.510176,0.54));
#1320 = LINE('',#1321,#1322);
#1321 = CARTESIAN_POINT('',(1.210678,1.510176,0.54));
#1322 = VECTOR('',#1323,1.);
#1323 = DIRECTION('',(-1.,0.,0.));
#1324 = ORIENTED_EDGE('',*,*,#1325,.F.);
#1325 = EDGE_CURVE('',#1326,#1318,#1328,.T.);
#1326 = VERTEX_POINT('',#1327);
#1327 = CARTESIAN_POINT('',(1.210678,1.310176,0.54));
#1328 = LINE('',#1329,#1330);
#1329 = CARTESIAN_POINT('',(1.210678,1.310176,0.54));
#1330 = VECTOR('',#1331,1.);
#1331 = DIRECTION('',(0.,1.,0.));
#1332 = ORIENTED_EDGE('',*,*,#1333,.F.);
#1333 = EDGE_CURVE('',#1310,#1326,#1334,.T.);
#1334 = LINE('',#1335,#1336);
#1335 = CARTESIAN_POINT('',(1.010678,1.310176,0.54));
#1336 = VECTOR('',#1337,1.);
#1337 = DIRECTION('',(1.,0.,0.));
#1338 = FACE_BOUND('',#1339,.T.);
#1339 = EDGE_LOOP('',(#1340,#1350,#1358,#1366));
#1340 = ORIENTED_EDGE('',*,*,#1341,.F.);
#1341 = EDGE_CURVE('',#1342,#1344,#1346,.T.);
#1342 = VERTEX_POINT('',#1343);
#1343 = CARTESIAN_POINT('',(1.271259,1.963033,0.54));
#1344 = VERTEX_POINT('',#1345);
#1345 = CARTESIAN_POINT('',(1.271259,1.763033,0.54));
#1346 = LINE('',#1347,#1348);
#1347 = CARTESIAN_POINT('',(1.271259,1.963033,0.54));
#1348 = VECTOR('',#1349,1.);
#1349 = DIRECTION('',(0.,-1.,0.));
#1350 = ORIENTED_EDGE('',*,*,#1351,.F.);
#1351 = EDGE_CURVE('',#1352,#1342,#1354,.T.);
#1352 = VERTEX_POINT('',#1353);
#1353 = CARTESIAN_POINT('',(1.471259,1.963033,0.54));
#1354 = LINE('',#1355,#1356);
#1355 = CARTESIAN_POINT('',(1.471259,1.963033,0.54));
#1356 = VECTOR('',#1357,1.);
#1357 = DIRECTION('',(-1.,0.,0.));
#1358 = ORIENTED_EDGE('',*,*,#1359,.F.);
#1359 = EDGE_CURVE('',#1360,#1352,#1362,.T.);
#1360 = VERTEX_POINT('',#1361);
#1361 = CARTESIAN_POINT('',(1.471259,1.763033,0.54));
#1362 = LINE('',#1363,#1364);
#1363 = CARTESIAN_POINT('',(1.471259,1.763033,0.54));
#1364 = VECTOR('',#1365,1.);
#1365 = DIRECTION('',(0.,1.,0.));
#1366 = ORIENTED_EDGE('',*,*,#1367,.F.);
#1367 = EDGE_CURVE('',#1344,#1360,#1368,.T.);
#1368 = LINE('',#1369,#1370);
#1369 = CARTESIAN_POINT('',(1.271259,1.763033,0.54));
#1370 = VECTOR('',#1371,1.);
#1371 = DIRECTION('',(1.,0.,0.));
#1372 = PLANE('',#1373);
#1373 = AXIS2_PLACEMENT_3D('',#1374,#1375,#1376);
#1374 = CARTESIAN_POINT('',(2.053817024077,1.015091530486,0.54));
#1375 = DIRECTION('',(0.,0.,1.));
#1376 = DIRECTION('',(1.,0.,-0.));
#1377 = ADVANCED_FACE('',(#1378),#1403,.F.);
#1378 = FACE_BOUND('',#1379,.F.);
#1379 = EDGE_LOOP('',(#1380,#1388,#1396,#1402));
#1380 = ORIENTED_EDGE('',*,*,#1381,.T.);
#1381 = EDGE_CURVE('',#1240,#1382,#1384,.T.);
#1382 = VERTEX_POINT('',#1383);
#1383 = CARTESIAN_POINT('',(1.306004,1.055072,0.74));
#1384 = LINE('',#1385,#1386);
#1385 = CARTESIAN_POINT('',(1.306004,1.055072,0.54));
#1386 = VECTOR('',#1387,1.);
#1387 = DIRECTION('',(0.,0.,1.));
#1388 = ORIENTED_EDGE('',*,*,#1389,.T.);
#1389 = EDGE_CURVE('',#1382,#1390,#1392,.T.);
#1390 = VERTEX_POINT('',#1391);
#1391 = CARTESIAN_POINT('',(1.306004,0.855072,0.74));
#1392 = LINE('',#1393,#1394);
#1393 = CARTESIAN_POINT('',(1.306004,1.055072,0.74));
#1394 = VECTOR('',#1395,1.);
#1395 = DIRECTION('',(0.,-1.,0.));
#1396 = ORIENTED_EDGE('',*,*,#1397,.F.);
#1397 = EDGE_CURVE('',#1242,#1390,#1398,.T.);
#1398 = LINE('',#1399,#1400);
#1399 = CARTESIAN_POINT('',(1.306004,0.855072,0.54));
#1400 = VECTOR('',#1401,1.);
#1401 = DIRECTION('',(0.,0.,1.));
#1402 = ORIENTED_EDGE('',*,*,#1239,.F.);
#1403 = PLANE('',#1404);
#1404 = AXIS2_PLACEMENT_3D('',#1405,#1406,#1407);
#1405 = CARTESIAN_POINT('',(1.306004,1.055072,0.54));
#1406 = DIRECTION('',(1.,0.,0.));
#1407 = DIRECTION('',(0.,-1.,0.));
#1408 = ADVANCED_FACE('',(#1409),#1427,.F.);
#1409 = FACE_BOUND('',#1410,.F.);
#1410 = EDGE_LOOP('',(#1411,#1412,#1420,#1426));
#1411 = ORIENTED_EDGE('',*,*,#1397,.T.);
#1412 = ORIENTED_EDGE('',*,*,#1413,.T.);
#1413 = EDGE_CURVE('',#1390,#1414,#1416,.T.);
#1414 = VERTEX_POINT('',#1415);
#1415 = CARTESIAN_POINT('',(1.506004,0.855072,0.74));
#1416 = LINE('',#1417,#1418);
#1417 = CARTESIAN_POINT('',(1.306004,0.855072,0.74));
#1418 = VECTOR('',#1419,1.);
#1419 = DIRECTION('',(1.,0.,0.));
#1420 = ORIENTED_EDGE('',*,*,#1421,.F.);
#1421 = EDGE_CURVE('',#1258,#1414,#1422,.T.);
#1422 = LINE('',#1423,#1424);
#1423 = CARTESIAN_POINT('',(1.506004,0.855072,0.54));
#1424 = VECTOR('',#1425,1.);
#1425 = DIRECTION('',(0.,0.,1.));
#1426 = ORIENTED_EDGE('',*,*,#1265,.F.);
#1427 = PLANE('',#1428);
#1428 = AXIS2_PLACEMENT_3D('',#1429,#1430,#1431);
#1429 = CARTESIAN_POINT('',(1.306004,0.855072,0.54));
#1430 = DIRECTION('',(0.,1.,0.));
#1431 = DIRECTION('',(1.,0.,0.));
#1432 = ADVANCED_FACE('',(#1433),#1451,.F.);
#1433 = FACE_BOUND('',#1434,.F.);
#1434 = EDGE_LOOP('',(#1435,#1436,#1444,#1450));
#1435 = ORIENTED_EDGE('',*,*,#1421,.T.);
#1436 = ORIENTED_EDGE('',*,*,#1437,.T.);
#1437 = EDGE_CURVE('',#1414,#1438,#1440,.T.);
#1438 = VERTEX_POINT('',#1439);
#1439 = CARTESIAN_POINT('',(1.506004,1.055072,0.74));
#1440 = LINE('',#1441,#1442);
#1441 = CARTESIAN_POINT('',(1.506004,0.855072,0.74));
#1442 = VECTOR('',#1443,1.);
#1443 = DIRECTION('',(0.,1.,0.));
#1444 = ORIENTED_EDGE('',*,*,#1445,.F.);
#1445 = EDGE_CURVE('',#1250,#1438,#1446,.T.);
#1446 = LINE('',#1447,#1448);
#1447 = CARTESIAN_POINT('',(1.506004,1.055072,0.54));
#1448 = VECTOR('',#1449,1.);
#1449 = DIRECTION('',(0.,0.,1.));
#1450 = ORIENTED_EDGE('',*,*,#1257,.F.);
#1451 = PLANE('',#1452);
#1452 = AXIS2_PLACEMENT_3D('',#1453,#1454,#1455);
#1453 = CARTESIAN_POINT('',(1.506004,0.855072,0.54));
#1454 = DIRECTION('',(-1.,0.,0.));
#1455 = DIRECTION('',(0.,1.,0.));
#1456 = ADVANCED_FACE('',(#1457),#1468,.F.);
#1457 = FACE_BOUND('',#1458,.F.);
#1458 = EDGE_LOOP('',(#1459,#1460,#1466,#1467));
#1459 = ORIENTED_EDGE('',*,*,#1445,.T.);
#1460 = ORIENTED_EDGE('',*,*,#1461,.T.);
#1461 = EDGE_CURVE('',#1438,#1382,#1462,.T.);
#1462 = LINE('',#1463,#1464);
#1463 = CARTESIAN_POINT('',(1.506004,1.055072,0.74));
#1464 = VECTOR('',#1465,1.);
#1465 = DIRECTION('',(-1.,0.,0.));
#1466 = ORIENTED_EDGE('',*,*,#1381,.F.);
#1467 = ORIENTED_EDGE('',*,*,#1249,.F.);
#1468 = PLANE('',#1469);
#1469 = AXIS2_PLACEMENT_3D('',#1470,#1471,#1472);
#1470 = CARTESIAN_POINT('',(1.506004,1.055072,0.54));
#1471 = DIRECTION('',(0.,-1.,0.));
#1472 = DIRECTION('',(-1.,0.,0.));
#1473 = ADVANCED_FACE('',(#1474),#1499,.F.);
#1474 = FACE_BOUND('',#1475,.F.);
#1475 = EDGE_LOOP('',(#1476,#1484,#1492,#1498));
#1476 = ORIENTED_EDGE('',*,*,#1477,.T.);
#1477 = EDGE_CURVE('',#1274,#1478,#1480,.T.);
#1478 = VERTEX_POINT('',#1479);
#1479 = CARTESIAN_POINT('',(1.796011,1.581469,0.74));
#1480 = LINE('',#1481,#1482);
#1481 = CARTESIAN_POINT('',(1.796011,1.581469,0.54));
#1482 = VECTOR('',#1483,1.);
#1483 = DIRECTION('',(0.,0.,1.));
#1484 = ORIENTED_EDGE('',*,*,#1485,.T.);
#1485 = EDGE_CURVE('',#1478,#1486,#1488,.T.);
#1486 = VERTEX_POINT('',#1487);
#1487 = CARTESIAN_POINT('',(1.796011,1.231469,0.74));
#1488 = LINE('',#1489,#1490);
#1489 = CARTESIAN_POINT('',(1.796011,1.581469,0.74));
#1490 = VECTOR('',#1491,1.);
#1491 = DIRECTION('',(0.,-1.,0.));
#1492 = ORIENTED_EDGE('',*,*,#1493,.F.);
#1493 = EDGE_CURVE('',#1276,#1486,#1494,.T.);
#1494 = LINE('',#1495,#1496);
#1495 = CARTESIAN_POINT('',(1.796011,1.231469,0.54));
#1496 = VECTOR('',#1497,1.);
#1497 = DIRECTION('',(0.,0.,1.));
#1498 = ORIENTED_EDGE('',*,*,#1273,.F.);
#1499 = PLANE('',#1500);
#1500 = AXIS2_PLACEMENT_3D('',#1501,#1502,#1503);
#1501 = CARTESIAN_POINT('',(1.796011,1.581469,0.54));
#1502 = DIRECTION('',(1.,0.,0.));
#1503 = DIRECTION('',(0.,-1.,0.));
#1504 = ADVANCED_FACE('',(#1505),#1523,.F.);
#1505 = FACE_BOUND('',#1506,.F.);
#1506 = EDGE_LOOP('',(#1507,#1508,#1516,#1522));
#1507 = ORIENTED_EDGE('',*,*,#1493,.T.);
#1508 = ORIENTED_EDGE('',*,*,#1509,.T.);
#1509 = EDGE_CURVE('',#1486,#1510,#1512,.T.);
#1510 = VERTEX_POINT('',#1511);
#1511 = CARTESIAN_POINT('',(2.196011,1.231469,0.74));
#1512 = LINE('',#1513,#1514);
#1513 = CARTESIAN_POINT('',(1.796011,1.231469,0.74));
#1514 = VECTOR('',#1515,1.);
#1515 = DIRECTION('',(1.,0.,0.));
#1516 = ORIENTED_EDGE('',*,*,#1517,.F.);
#1517 = EDGE_CURVE('',#1292,#1510,#1518,.T.);
#1518 = LINE('',#1519,#1520);
#1519 = CARTESIAN_POINT('',(2.196011,1.231469,0.54));
#1520 = VECTOR('',#1521,1.);
#1521 = DIRECTION('',(0.,0.,1.));
#1522 = ORIENTED_EDGE('',*,*,#1299,.F.);
#1523 = PLANE('',#1524);
#1524 = AXIS2_PLACEMENT_3D('',#1525,#1526,#1527);
#1525 = CARTESIAN_POINT('',(1.796011,1.231469,0.54));
#1526 = DIRECTION('',(0.,1.,0.));
#1527 = DIRECTION('',(1.,0.,0.));
#1528 = ADVANCED_FACE('',(#1529),#1547,.F.);
#1529 = FACE_BOUND('',#1530,.F.);
#1530 = EDGE_LOOP('',(#1531,#1532,#1540,#1546));
#1531 = ORIENTED_EDGE('',*,*,#1517,.T.);
#1532 = ORIENTED_EDGE('',*,*,#1533,.T.);
#1533 = EDGE_CURVE('',#1510,#1534,#1536,.T.);
#1534 = VERTEX_POINT('',#1535);
#1535 = CARTESIAN_POINT('',(2.196011,1.581469,0.74));
#1536 = LINE('',#1537,#1538);
#1537 = CARTESIAN_POINT('',(2.196011,1.231469,0.74));
#1538 = VECTOR('',#1539,1.);
#1539 = DIRECTION('',(0.,1.,0.));
#1540 = ORIENTED_EDGE('',*,*,#1541,.F.);
#1541 = EDGE_CURVE('',#1284,#1534,#1542,.T.);
#1542 = LINE('',#1543,#1544);
#1543 = CARTESIAN_POINT('',(2.196011,1.581469,0.54));
#1544 = VECTOR('',#1545,1.);
#1545 = DIRECTION('',(0.,0.,1.));
#1546 = ORIENTED_EDGE('',*,*,#1291,.F.);
#1547 = PLANE('',#1548);
#1548 = AXIS2_PLACEMENT_3D('',#1549,#1550,#1551);
#1549 = CARTESIAN_POINT('',(2.196011,1.231469,0.54));
#1550 = DIRECTION('',(-1.,0.,0.));
#1551 = DIRECTION('',(0.,1.,0.));
#1552 = ADVANCED_FACE('',(#1553),#1564,.F.);
#1553 = FACE_BOUND('',#1554,.F.);
#1554 = EDGE_LOOP('',(#1555,#1556,#1562,#1563));
#1555 = ORIENTED_EDGE('',*,*,#1541,.T.);
#1556 = ORIENTED_EDGE('',*,*,#1557,.T.);
#1557 = EDGE_CURVE('',#1534,#1478,#1558,.T.);
#1558 = LINE('',#1559,#1560);
#1559 = CARTESIAN_POINT('',(2.196011,1.581469,0.74));
#1560 = VECTOR('',#1561,1.);
#1561 = DIRECTION('',(-1.,0.,0.));
#1562 = ORIENTED_EDGE('',*,*,#1477,.F.);
#1563 = ORIENTED_EDGE('',*,*,#1283,.F.);
#1564 = PLANE('',#1565);
#1565 = AXIS2_PLACEMENT_3D('',#1566,#1567,#1568);
#1566 = CARTESIAN_POINT('',(2.196011,1.581469,0.54));
#1567 = DIRECTION('',(0.,-1.,0.));
#1568 = DIRECTION('',(-1.,0.,0.));
#1569 = ADVANCED_FACE('',(#1570),#1595,.F.);
#1570 = FACE_BOUND('',#1571,.F.);
#1571 = EDGE_LOOP('',(#1572,#1580,#1588,#1594));
#1572 = ORIENTED_EDGE('',*,*,#1573,.T.);
#1573 = EDGE_CURVE('',#1308,#1574,#1576,.T.);
#1574 = VERTEX_POINT('',#1575);
#1575 = CARTESIAN_POINT('',(1.010678,1.510176,0.74));
#1576 = LINE('',#1577,#1578);
#1577 = CARTESIAN_POINT('',(1.010678,1.510176,0.54));
#1578 = VECTOR('',#1579,1.);
#1579 = DIRECTION('',(0.,0.,1.));
#1580 = ORIENTED_EDGE('',*,*,#1581,.T.);
#1581 = EDGE_CURVE('',#1574,#1582,#1584,.T.);
#1582 = VERTEX_POINT('',#1583);
#1583 = CARTESIAN_POINT('',(1.010678,1.310176,0.74));
#1584 = LINE('',#1585,#1586);
#1585 = CARTESIAN_POINT('',(1.010678,1.510176,0.74));
#1586 = VECTOR('',#1587,1.);
#1587 = DIRECTION('',(0.,-1.,0.));
#1588 = ORIENTED_EDGE('',*,*,#1589,.F.);
#1589 = EDGE_CURVE('',#1310,#1582,#1590,.T.);
#1590 = LINE('',#1591,#1592);
#1591 = CARTESIAN_POINT('',(1.010678,1.310176,0.54));
#1592 = VECTOR('',#1593,1.);
#1593 = DIRECTION('',(0.,0.,1.));
#1594 = ORIENTED_EDGE('',*,*,#1307,.F.);
#1595 = PLANE('',#1596);
#1596 = AXIS2_PLACEMENT_3D('',#1597,#1598,#1599);
#1597 = CARTESIAN_POINT('',(1.010678,1.510176,0.54));
#1598 = DIRECTION('',(1.,0.,0.));
#1599 = DIRECTION('',(0.,-1.,0.));
#1600 = ADVANCED_FACE('',(#1601),#1619,.F.);
#1601 = FACE_BOUND('',#1602,.F.);
#1602 = EDGE_LOOP('',(#1603,#1604,#1612,#1618));
#1603 = ORIENTED_EDGE('',*,*,#1589,.T.);
#1604 = ORIENTED_EDGE('',*,*,#1605,.T.);
#1605 = EDGE_CURVE('',#1582,#1606,#1608,.T.);
#1606 = VERTEX_POINT('',#1607);
#1607 = CARTESIAN_POINT('',(1.210678,1.310176,0.74));
#1608 = LINE('',#1609,#1610);
#1609 = CARTESIAN_POINT('',(1.010678,1.310176,0.74));
#1610 = VECTOR('',#1611,1.);
#1611 = DIRECTION('',(1.,0.,0.));
#1612 = ORIENTED_EDGE('',*,*,#1613,.F.);
#1613 = EDGE_CURVE('',#1326,#1606,#1614,.T.);
#1614 = LINE('',#1615,#1616);
#1615 = CARTESIAN_POINT('',(1.210678,1.310176,0.54));
#1616 = VECTOR('',#1617,1.);
#1617 = DIRECTION('',(0.,0.,1.));
#1618 = ORIENTED_EDGE('',*,*,#1333,.F.);
#1619 = PLANE('',#1620);
#1620 = AXIS2_PLACEMENT_3D('',#1621,#1622,#1623);
#1621 = CARTESIAN_POINT('',(1.010678,1.310176,0.54));
#1622 = DIRECTION('',(0.,1.,0.));
#1623 = DIRECTION('',(1.,0.,0.));
#1624 = ADVANCED_FACE('',(#1625),#1643,.F.);
#1625 = FACE_BOUND('',#1626,.F.);
#1626 = EDGE_LOOP('',(#1627,#1628,#1636,#1642));
#1627 = ORIENTED_EDGE('',*,*,#1613,.T.);
#1628 = ORIENTED_EDGE('',*,*,#1629,.T.);
#1629 = EDGE_CURVE('',#1606,#1630,#1632,.T.);
#1630 = VERTEX_POINT('',#1631);
#1631 = CARTESIAN_POINT('',(1.210678,1.510176,0.74));
#1632 = LINE('',#1633,#1634);
#1633 = CARTESIAN_POINT('',(1.210678,1.310176,0.74));
#1634 = VECTOR('',#1635,1.);
#1635 = DIRECTION('',(0.,1.,0.));
#1636 = ORIENTED_EDGE('',*,*,#1637,.F.);
#1637 = EDGE_CURVE('',#1318,#1630,#1638,.T.);
#1638 = LINE('',#1639,#1640);
#1639 = CARTESIAN_POINT('',(1.210678,1.510176,0.54));
#1640 = VECTOR('',#1641,1.);
#1641 = DIRECTION('',(0.,0.,1.));
#1642 = ORIENTED_EDGE('',*,*,#1325,.F.);
#1643 = PLANE('',#1644);
#1644 = AXIS2_PLACEMENT_3D('',#1645,#1646,#1647);
#1645 = CARTESIAN_POINT('',(1.210678,1.310176,0.54));
#1646 = DIRECTION('',(-1.,0.,0.));
#1647 = DIRECTION('',(0.,1.,0.));
#1648 = ADVANCED_FACE('',(#1649),#1660,.F.);
#1649 = FACE_BOUND('',#1650,.F.);
#1650 = EDGE_LOOP('',(#1651,#1652,#1658,#1659));
#1651 = ORIENTED_EDGE('',*,*,#1637,.T.);
#1652 = ORIENTED_EDGE('',*,*,#1653,.T.);
#1653 = EDGE_CURVE('',#1630,#1574,#1654,.T.);
#1654 = LINE('',#1655,#1656);
#1655 = CARTESIAN_POINT('',(1.210678,1.510176,0.74));
#1656 = VECTOR('',#1657,1.);
#1657 = DIRECTION('',(-1.,0.,0.));
#1658 = ORIENTED_EDGE('',*,*,#1573,.F.);
#1659 = ORIENTED_EDGE('',*,*,#1317,.F.);
#1660 = PLANE('',#1661);
#1661 = AXIS2_PLACEMENT_3D('',#1662,#1663,#1664);
#1662 = CARTESIAN_POINT('',(1.210678,1.510176,0.54));
#1663 = DIRECTION('',(0.,-1.,0.));
#1664 = DIRECTION('',(-1.,0.,0.));
#1665 = ADVANCED_FACE('',(#1666),#1691,.F.);
#1666 = FACE_BOUND('',#1667,.F.);
#1667 = EDGE_LOOP('',(#1668,#1676,#1684,#1690));
#1668 = ORIENTED_EDGE('',*,*,#1669,.T.);
#1669 = EDGE_CURVE('',#1342,#1670,#1672,.T.);
#1670 = VERTEX_POINT('',#1671);
#1671 = CARTESIAN_POINT('',(1.271259,1.963033,0.74));
#1672 = LINE('',#1673,#1674);
#1673 = CARTESIAN_POINT('',(1.271259,1.963033,0.54));
#1674 = VECTOR('',#1675,1.);
#1675 = DIRECTION('',(0.,0.,1.));
#1676 = ORIENTED_EDGE('',*,*,#1677,.T.);
#1677 = EDGE_CURVE('',#1670,#1678,#1680,.T.);
#1678 = VERTEX_POINT('',#1679);
#1679 = CARTESIAN_POINT('',(1.271259,1.763033,0.74));
#1680 = LINE('',#1681,#1682);
#1681 = CARTESIAN_POINT('',(1.271259,1.963033,0.74));
#1682 = VECTOR('',#1683,1.);
#1683 = DIRECTION('',(0.,-1.,0.));
#1684 = ORIENTED_EDGE('',*,*,#1685,.F.);
#1685 = EDGE_CURVE('',#1344,#1678,#1686,.T.);
#1686 = LINE('',#1687,#1688);
#1687 = CARTESIAN_POINT('',(1.271259,1.763033,0.54));
#1688 = VECTOR('',#1689,1.);
#1689 = DIRECTION('',(0.,0.,1.));
#1690 = ORIENTED_EDGE('',*,*,#1341,.F.);
#1691 = PLANE('',#1692);
#1692 = AXIS2_PLACEMENT_3D('',#1693,#1694,#1695);
#1693 = CARTESIAN_POINT('',(1.271259,1.963033,0.54));
#1694 = DIRECTION('',(1.,0.,0.));
#1695 = DIRECTION('',(0.,-1.,0.));
#1696 = ADVANCED_FACE('',(#1697),#1715,.F.);
#1697 = FACE_BOUND('',#1698,.F.);
#1698 = EDGE_LOOP('',(#1699,#1700,#1708,#1714));
#1699 = ORIENTED_EDGE('',*,*,#1685,.T.);
#1700 = ORIENTED_EDGE('',*,*,#1701,.T.);
#1701 = EDGE_CURVE('',#1678,#1702,#1704,.T.);
#1702 = VERTEX_POINT('',#1703);
#1703 = CARTESIAN_POINT('',(1.471259,1.763033,0.74));
#1704 = LINE('',#1705,#1706);
#1705 = CARTESIAN_POINT('',(1.271259,1.763033,0.74));
#1706 = VECTOR('',#1707,1.);
#1707 = DIRECTION('',(1.,0.,0.));
#1708 = ORIENTED_EDGE('',*,*,#1709,.F.);
#1709 = EDGE_CURVE('',#1360,#1702,#1710,.T.);
#1710 = LINE('',#1711,#1712);
#1711 = CARTESIAN_POINT('',(1.471259,1.763033,0.54));
#1712 = VECTOR('',#1713,1.);
#1713 = DIRECTION('',(0.,0.,1.));
#1714 = ORIENTED_EDGE('',*,*,#1367,.F.);
#1715 = PLANE('',#1716);
#1716 = AXIS2_PLACEMENT_3D('',#1717,#1718,#1719);
#1717 = CARTESIAN_POINT('',(1.271259,1.763033,0.54));
#1718 = DIRECTION('',(0.,1.,0.));
#1719 = DIRECTION('',(1.,0.,0.));
#1720 = ADVANCED_FACE('',(#1721),#1739,.F.);
#1721 = FACE_BOUND('',#1722,.F.);
#1722 = EDGE_LOOP('',(#1723,#1724,#1732,#1738));
#1723 = ORIENTED_EDGE('',*,*,#1709,.T.);
#1724 = ORIENTED_EDGE('',*,*,#1725,.T.);
#1725 = EDGE_CURVE('',#1702,#1726,#1728,.T.);
#1726 = VERTEX_POINT('',#1727);
#1727 = CARTESIAN_POINT('',(1.471259,1.963033,0.74));
#1728 = LINE('',#1729,#1730);
#1729 = CARTESIAN_POINT('',(1.471259,1.763033,0.74));
#1730 = VECTOR('',#1731,1.);
#1731 = DIRECTION('',(0.,1.,0.));
#1732 = ORIENTED_EDGE('',*,*,#1733,.F.);
#1733 = EDGE_CURVE('',#1352,#1726,#1734,.T.);
#1734 = LINE('',#1735,#1736);
#1735 = CARTESIAN_POINT('',(1.471259,1.963033,0.54));
#1736 = VECTOR('',#1737,1.);
#1737 = DIRECTION('',(0.,0.,1.));
#1738 = ORIENTED_EDGE('',*,*,#1359,.F.);
#1739 = PLANE('',#1740);
#1740 = AXIS2_PLACEMENT_3D('',#1741,#1742,#1743);
#1741 = CARTESIAN_POINT('',(1.471259,1.763033,0.54));
#1742 = DIRECTION('',(-1.,0.,0.));
#1743 = DIRECTION('',(0.,1.,0.));
#1744 = ADVANCED_FACE('',(#1745),#1756,.F.);
#1745 = FACE_BOUND('',#1746,.F.);
#1746 = EDGE_LOOP('',(#1747,#1748,#1754,#1755));
#1747 = ORIENTED_EDGE('',*,*,#1733,.T.);
#1748 = ORIENTED_EDGE('',*,*,#1749,.T.);
#1749 = EDGE_CURVE('',#1726,#1670,#1750,.T.);
#1750 = LINE('',#1751,#1752);
#1751 = CARTESIAN_POINT('',(1.471259,1.963033,0.74));
#1752 = VECTOR('',#1753,1.);
#1753 = DIRECTION('',(-1.,0.,0.));
#1754 = ORIENTED_EDGE('',*,*,#1669,.F.);
#1755 = ORIENTED_EDGE('',*,*,#1351,.F.);
#1756 = PLANE('',#1757);
#1757 = AXIS2_PLACEMENT_3D('',#1758,#1759,#1760);
#1758 = CARTESIAN_POINT('',(1.471259,1.963033,0.54));
#1759 = DIRECTION('',(0.,-1.,0.));
#1760 = DIRECTION('',(-1.,0.,0.));
#1761 = ADVANCED_FACE('',(#1762),#1768,.T.);
#1762 = FACE_BOUND('',#1763,.T.);
#1763 = EDGE_LOOP('',(#1764,#1765,#1766,#1767));
#1764 = ORIENTED_EDGE('',*,*,#1389,.T.);
#1765 = ORIENTED_EDGE('',*,*,#1413,.T.);
#1766 = ORIENTED_EDGE('',*,*,#1437,.T.);
#1767 = ORIENTED_EDGE('',*,*,#1461,.T.);
#1768 = PLANE('',#1769);
#1769 = AXIS2_PLACEMENT_3D('',#1770,#1771,#1772);
#1770 = CARTESIAN_POINT('',(1.565222897436,1.408289307692,0.74));
#1771 = DIRECTION('',(0.,0.,1.));
#1772 = DIRECTION('',(1.,0.,-0.));
#1773 = ADVANCED_FACE('',(#1774),#1780,.T.);
#1774 = FACE_BOUND('',#1775,.T.);
#1775 = EDGE_LOOP('',(#1776,#1777,#1778,#1779));
#1776 = ORIENTED_EDGE('',*,*,#1485,.T.);
#1777 = ORIENTED_EDGE('',*,*,#1509,.T.);
#1778 = ORIENTED_EDGE('',*,*,#1533,.T.);
#1779 = ORIENTED_EDGE('',*,*,#1557,.T.);
#1780 = PLANE('',#1781);
#1781 = AXIS2_PLACEMENT_3D('',#1782,#1783,#1784);
#1782 = CARTESIAN_POINT('',(1.565222897436,1.408289307692,0.74));
#1783 = DIRECTION('',(0.,0.,1.));
#1784 = DIRECTION('',(1.,0.,-0.));
#1785 = ADVANCED_FACE('',(#1786),#1792,.T.);
#1786 = FACE_BOUND('',#1787,.T.);
#1787 = EDGE_LOOP('',(#1788,#1789,#1790,#1791));
#1788 = ORIENTED_EDGE('',*,*,#1581,.T.);
#1789 = ORIENTED_EDGE('',*,*,#1605,.T.);
#1790 = ORIENTED_EDGE('',*,*,#1629,.T.);
#1791 = ORIENTED_EDGE('',*,*,#1653,.T.);
#1792 = PLANE('',#1793);
#1793 = AXIS2_PLACEMENT_3D('',#1794,#1795,#1796);
#1794 = CARTESIAN_POINT('',(1.565222897436,1.408289307692,0.74));
#1795 = DIRECTION('',(0.,0.,1.));
#1796 = DIRECTION('',(1.,0.,-0.));
#1797 = ADVANCED_FACE('',(#1798),#1804,.T.);
#1798 = FACE_BOUND('',#1799,.T.);
#1799 = EDGE_LOOP('',(#1800,#1801,#1802,#1803));
#1800 = ORIENTED_EDGE('',*,*,#1677,.T.);
#1801 = ORIENTED_EDGE('',*,*,#1701,.T.);
#1802 = ORIENTED_EDGE('',*,*,#1725,.T.);
#1803 = ORIENTED_EDGE('',*,*,#1749,.T.);
#1804 = PLANE('',#1805);
#1805 = AXIS2_PLACEMENT_3D('',#1806,#1807,#1808);
#1806 = CARTESIAN_POINT('',(1.565222897436,1.408289307692,0.74));
#1807 = DIRECTION('',(0.,0.,1.));
#1808 = DIRECTION('',(1.,0.,-0.));
#1809 = ( GEOMETRIC_REPRESENTATION_CONTEXT(3) 
GLOBAL_UNCERTAINTY_ASSIGNED_CONTEXT((#1813)) 
GLOBAL_UNIT_ASSIGNED_CONTEXT((#1810,#1811,#1812)) REPRESENTATION_CONTEXT
('Context #1','3D Context with UNIT and UNCERTAINTY') );
#1810 = ( LENGTH_UNIT() NAMED_UNIT(*) SI_UNIT(.MILLI.,.METRE.) );
#1811 = ( NAMED_UNIT(*) PLANE_ANGLE_UNIT() SI_UNIT($,.RADIAN.) );
#1812 = ( NAMED_UNIT(*) SI_UNIT($,.STERADIAN.) SOLID_ANGLE_UNIT() );
#1813 = UNCERTAINTY_MEASURE_WITH_UNIT(LENGTH_MEASURE(1.E-07),#1810,
  'distance_accuracy_value','confusion accuracy');
#1814 = PRODUCT_RELATED_PRODUCT_CATEGORY('part',$,(#7));
#1815 = MECHANICAL_DESIGN_GEOMETRIC_PRESENTATION_REPRESENTATION('',(
    #1816,#1827,#1835,#1842,#1849,#1856,#1863,#1870,#1877,#1884,#1891,
    #1898,#1905,#1912,#1919,#1926,#1933,#1940,#1947,#1954,#1961,#1969,
    #1976,#1983,#1990,#2000,#2009,#2018,#2027,#2035,#2042,#2049,#2056,
    #2064,#2071,#2078,#2085,#2092,#2101,#2108),#1809);
#1816 = STYLED_ITEM('color',(#1817),#15);
#1817 = PRESENTATION_STYLE_ASSIGNMENT((#1818,#1824));
#1818 = SURFACE_STYLE_USAGE(.BOTH.,#1819);
#1819 = SURFACE_SIDE_STYLE('',(#1820));
#1820 = SURFACE_STYLE_FILL_AREA(#1821);
#1821 = FILL_AREA_STYLE('',(#1822));
#1822 = FILL_AREA_STYLE_COLOUR('',#1823);
#1823 = DRAUGHTING_PRE_DEFINED_COLOUR('white');
#1824 = CURVE_STYLE('',#1825,POSITIVE_LENGTH_MEASURE(0.1),#1826);
#1825 = DRAUGHTING_PRE_DEFINED_CURVE_FONT('continuous');
#1826 = COLOUR_RGB('',9.803921802644E-02,9.803921802644E-02,
  9.803921802644E-02);
#1827 = OVER_RIDING_STYLED_ITEM('overriding color',(#1828),#302,#1816);
#1828 = PRESENTATION_STYLE_ASSIGNMENT((#1829));
#1829 = SURFACE_STYLE_USAGE(.BOTH.,#1830);
#1830 = SURFACE_SIDE_STYLE('',(#1831));
#1831 = SURFACE_STYLE_FILL_AREA(#1832);
#1832 = FILL_AREA_STYLE('',(#1833));
#1833 = FILL_AREA_STYLE_COLOUR('',#1834);
#1834 = COLOUR_RGB('',0.760784316928,0.807843143701,0.854901964685);
#1835 = OVER_RIDING_STYLED_ITEM('overriding color',(#1836),#787,#1816);
#1836 = PRESENTATION_STYLE_ASSIGNMENT((#1837));
#1837 = SURFACE_STYLE_USAGE(.BOTH.,#1838);
#1838 = SURFACE_SIDE_STYLE('',(#1839));
#1839 = SURFACE_STYLE_FILL_AREA(#1840);
#1840 = FILL_AREA_STYLE('',(#1841));
#1841 = FILL_AREA_STYLE_COLOUR('',#1834);
#1842 = OVER_RIDING_STYLED_ITEM('overriding color',(#1843),#874,#1816);
#1843 = PRESENTATION_STYLE_ASSIGNMENT((#1844));
#1844 = SURFACE_STYLE_USAGE(.BOTH.,#1845);
#1845 = SURFACE_SIDE_STYLE('',(#1846));
#1846 = SURFACE_STYLE_FILL_AREA(#1847);
#1847 = FILL_AREA_STYLE('',(#1848));
#1848 = FILL_AREA_STYLE_COLOUR('',#1834);
#1849 = OVER_RIDING_STYLED_ITEM('overriding color',(#1850),#898,#1816);
#1850 = PRESENTATION_STYLE_ASSIGNMENT((#1851));
#1851 = SURFACE_STYLE_USAGE(.BOTH.,#1852);
#1852 = SURFACE_SIDE_STYLE('',(#1853));
#1853 = SURFACE_STYLE_FILL_AREA(#1854);
#1854 = FILL_AREA_STYLE('',(#1855));
#1855 = FILL_AREA_STYLE_COLOUR('',#1834);
#1856 = OVER_RIDING_STYLED_ITEM('overriding color',(#1857),#922,#1816);
#1857 = PRESENTATION_STYLE_ASSIGNMENT((#1858));
#1858 = SURFACE_STYLE_USAGE(.BOTH.,#1859);
#1859 = SURFACE_SIDE_STYLE('',(#1860));
#1860 = SURFACE_STYLE_FILL_AREA(#1861);
#1861 = FILL_AREA_STYLE('',(#1862));
#1862 = FILL_AREA_STYLE_COLOUR('',#1834);
#1863 = OVER_RIDING_STYLED_ITEM('overriding color',(#1864),#939,#1816);
#1864 = PRESENTATION_STYLE_ASSIGNMENT((#1865));
#1865 = SURFACE_STYLE_USAGE(.BOTH.,#1866);
#1866 = SURFACE_SIDE_STYLE('',(#1867));
#1867 = SURFACE_STYLE_FILL_AREA(#1868);
#1868 = FILL_AREA_STYLE('',(#1869));
#1869 = FILL_AREA_STYLE_COLOUR('',#1834);
#1870 = OVER_RIDING_STYLED_ITEM('overriding color',(#1871),#963,#1816);
#1871 = PRESENTATION_STYLE_ASSIGNMENT((#1872));
#1872 = SURFACE_STYLE_USAGE(.BOTH.,#1873);
#1873 = SURFACE_SIDE_STYLE('',(#1874));
#1874 = SURFACE_STYLE_FILL_AREA(#1875);
#1875 = FILL_AREA_STYLE('',(#1876));
#1876 = FILL_AREA_STYLE_COLOUR('',#1834);
#1877 = OVER_RIDING_STYLED_ITEM('overriding color',(#1878),#987,#1816);
#1878 = PRESENTATION_STYLE_ASSIGNMENT((#1879));
#1879 = SURFACE_STYLE_USAGE(.BOTH.,#1880);
#1880 = SURFACE_SIDE_STYLE('',(#1881));
#1881 = SURFACE_STYLE_FILL_AREA(#1882);
#1882 = FILL_AREA_STYLE('',(#1883));
#1883 = FILL_AREA_STYLE_COLOUR('',#1834);
#1884 = OVER_RIDING_STYLED_ITEM('overriding color',(#1885),#1011,#1816);
#1885 = PRESENTATION_STYLE_ASSIGNMENT((#1886));
#1886 = SURFACE_STYLE_USAGE(.BOTH.,#1887);
#1887 = SURFACE_SIDE_STYLE('',(#1888));
#1888 = SURFACE_STYLE_FILL_AREA(#1889);
#1889 = FILL_AREA_STYLE('',(#1890));
#1890 = FILL_AREA_STYLE_COLOUR('',#1834);
#1891 = OVER_RIDING_STYLED_ITEM('overriding color',(#1892),#1028,#1816);
#1892 = PRESENTATION_STYLE_ASSIGNMENT((#1893));
#1893 = SURFACE_STYLE_USAGE(.BOTH.,#1894);
#1894 = SURFACE_SIDE_STYLE('',(#1895));
#1895 = SURFACE_STYLE_FILL_AREA(#1896);
#1896 = FILL_AREA_STYLE('',(#1897));
#1897 = FILL_AREA_STYLE_COLOUR('',#1834);
#1898 = OVER_RIDING_STYLED_ITEM('overriding color',(#1899),#1040,#1816);
#1899 = PRESENTATION_STYLE_ASSIGNMENT((#1900));
#1900 = SURFACE_STYLE_USAGE(.BOTH.,#1901);
#1901 = SURFACE_SIDE_STYLE('',(#1902));
#1902 = SURFACE_STYLE_FILL_AREA(#1903);
#1903 = FILL_AREA_STYLE('',(#1904));
#1904 = FILL_AREA_STYLE_COLOUR('',#1834);
#1905 = OVER_RIDING_STYLED_ITEM('overriding color',(#1906),#1078,#1816);
#1906 = PRESENTATION_STYLE_ASSIGNMENT((#1907));
#1907 = SURFACE_STYLE_USAGE(.BOTH.,#1908);
#1908 = SURFACE_SIDE_STYLE('',(#1909));
#1909 = SURFACE_STYLE_FILL_AREA(#1910);
#1910 = FILL_AREA_STYLE('',(#1911));
#1911 = FILL_AREA_STYLE_COLOUR('',#1834);
#1912 = OVER_RIDING_STYLED_ITEM('overriding color',(#1913),#1102,#1816);
#1913 = PRESENTATION_STYLE_ASSIGNMENT((#1914));
#1914 = SURFACE_STYLE_USAGE(.BOTH.,#1915);
#1915 = SURFACE_SIDE_STYLE('',(#1916));
#1916 = SURFACE_STYLE_FILL_AREA(#1917);
#1917 = FILL_AREA_STYLE('',(#1918));
#1918 = FILL_AREA_STYLE_COLOUR('',#1834);
#1919 = OVER_RIDING_STYLED_ITEM('overriding color',(#1920),#1126,#1816);
#1920 = PRESENTATION_STYLE_ASSIGNMENT((#1921));
#1921 = SURFACE_STYLE_USAGE(.BOTH.,#1922);
#1922 = SURFACE_SIDE_STYLE('',(#1923));
#1923 = SURFACE_STYLE_FILL_AREA(#1924);
#1924 = FILL_AREA_STYLE('',(#1925));
#1925 = FILL_AREA_STYLE_COLOUR('',#1834);
#1926 = OVER_RIDING_STYLED_ITEM('overriding color',(#1927),#1143,#1816);
#1927 = PRESENTATION_STYLE_ASSIGNMENT((#1928));
#1928 = SURFACE_STYLE_USAGE(.BOTH.,#1929);
#1929 = SURFACE_SIDE_STYLE('',(#1930));
#1930 = SURFACE_STYLE_FILL_AREA(#1931);
#1931 = FILL_AREA_STYLE('',(#1932));
#1932 = FILL_AREA_STYLE_COLOUR('',#1834);
#1933 = OVER_RIDING_STYLED_ITEM('overriding color',(#1934),#1167,#1816);
#1934 = PRESENTATION_STYLE_ASSIGNMENT((#1935));
#1935 = SURFACE_STYLE_USAGE(.BOTH.,#1936);
#1936 = SURFACE_SIDE_STYLE('',(#1937));
#1937 = SURFACE_STYLE_FILL_AREA(#1938);
#1938 = FILL_AREA_STYLE('',(#1939));
#1939 = FILL_AREA_STYLE_COLOUR('',#1834);
#1940 = OVER_RIDING_STYLED_ITEM('overriding color',(#1941),#1191,#1816);
#1941 = PRESENTATION_STYLE_ASSIGNMENT((#1942));
#1942 = SURFACE_STYLE_USAGE(.BOTH.,#1943);
#1943 = SURFACE_SIDE_STYLE('',(#1944));
#1944 = SURFACE_STYLE_FILL_AREA(#1945);
#1945 = FILL_AREA_STYLE('',(#1946));
#1946 = FILL_AREA_STYLE_COLOUR('',#1834);
#1947 = OVER_RIDING_STYLED_ITEM('overriding color',(#1948),#1208,#1816);
#1948 = PRESENTATION_STYLE_ASSIGNMENT((#1949));
#1949 = SURFACE_STYLE_USAGE(.BOTH.,#1950);
#1950 = SURFACE_SIDE_STYLE('',(#1951));
#1951 = SURFACE_STYLE_FILL_AREA(#1952);
#1952 = FILL_AREA_STYLE('',(#1953));
#1953 = FILL_AREA_STYLE_COLOUR('',#1834);
#1954 = OVER_RIDING_STYLED_ITEM('overriding color',(#1955),#1220,#1816);
#1955 = PRESENTATION_STYLE_ASSIGNMENT((#1956));
#1956 = SURFACE_STYLE_USAGE(.BOTH.,#1957);
#1957 = SURFACE_SIDE_STYLE('',(#1958));
#1958 = SURFACE_STYLE_FILL_AREA(#1959);
#1959 = FILL_AREA_STYLE('',(#1960));
#1960 = FILL_AREA_STYLE_COLOUR('',#1834);
#1961 = OVER_RIDING_STYLED_ITEM('overriding color',(#1962),#1377,#1816);
#1962 = PRESENTATION_STYLE_ASSIGNMENT((#1963));
#1963 = SURFACE_STYLE_USAGE(.BOTH.,#1964);
#1964 = SURFACE_SIDE_STYLE('',(#1965));
#1965 = SURFACE_STYLE_FILL_AREA(#1966);
#1966 = FILL_AREA_STYLE('',(#1967));
#1967 = FILL_AREA_STYLE_COLOUR('',#1968);
#1968 = DRAUGHTING_PRE_DEFINED_COLOUR('blue');
#1969 = OVER_RIDING_STYLED_ITEM('overriding color',(#1970),#1408,#1816);
#1970 = PRESENTATION_STYLE_ASSIGNMENT((#1971));
#1971 = SURFACE_STYLE_USAGE(.BOTH.,#1972);
#1972 = SURFACE_SIDE_STYLE('',(#1973));
#1973 = SURFACE_STYLE_FILL_AREA(#1974);
#1974 = FILL_AREA_STYLE('',(#1975));
#1975 = FILL_AREA_STYLE_COLOUR('',#1968);
#1976 = OVER_RIDING_STYLED_ITEM('overriding color',(#1977),#1432,#1816);
#1977 = PRESENTATION_STYLE_ASSIGNMENT((#1978));
#1978 = SURFACE_STYLE_USAGE(.BOTH.,#1979);
#1979 = SURFACE_SIDE_STYLE('',(#1980));
#1980 = SURFACE_STYLE_FILL_AREA(#1981);
#1981 = FILL_AREA_STYLE('',(#1982));
#1982 = FILL_AREA_STYLE_COLOUR('',#1968);
#1983 = OVER_RIDING_STYLED_ITEM('overriding color',(#1984),#1456,#1816);
#1984 = PRESENTATION_STYLE_ASSIGNMENT((#1985));
#1985 = SURFACE_STYLE_USAGE(.BOTH.,#1986);
#1986 = SURFACE_SIDE_STYLE('',(#1987));
#1987 = SURFACE_STYLE_FILL_AREA(#1988);
#1988 = FILL_AREA_STYLE('',(#1989));
#1989 = FILL_AREA_STYLE_COLOUR('',#1968);
#1990 = OVER_RIDING_STYLED_ITEM('overriding color',(#1991),#1473,#1816);
#1991 = PRESENTATION_STYLE_ASSIGNMENT((#1992));
#1992 = SURFACE_STYLE_USAGE(.BOTH.,#1993);
#1993 = SURFACE_SIDE_STYLE('',(#1994,#1998));
#1994 = SURFACE_STYLE_FILL_AREA(#1995);
#1995 = FILL_AREA_STYLE('',(#1996));
#1996 = FILL_AREA_STYLE_COLOUR('',#1997);
#1997 = COLOUR_RGB('',0.447059003357,0.474510015008,0.501960993452);
#1998 = SURFACE_STYLE_RENDERING_WITH_PROPERTIES(.NORMAL_SHADING.,#1997,(
    #1999));
#1999 = SURFACE_STYLE_TRANSPARENT(1.);
#2000 = OVER_RIDING_STYLED_ITEM('overriding color',(#2001),#1504,#1816);
#2001 = PRESENTATION_STYLE_ASSIGNMENT((#2002));
#2002 = SURFACE_STYLE_USAGE(.BOTH.,#2003);
#2003 = SURFACE_SIDE_STYLE('',(#2004,#2007));
#2004 = SURFACE_STYLE_FILL_AREA(#2005);
#2005 = FILL_AREA_STYLE('',(#2006));
#2006 = FILL_AREA_STYLE_COLOUR('',#1997);
#2007 = SURFACE_STYLE_RENDERING_WITH_PROPERTIES(.NORMAL_SHADING.,#1997,(
    #2008));
#2008 = SURFACE_STYLE_TRANSPARENT(1.);
#2009 = OVER_RIDING_STYLED_ITEM('overriding color',(#2010),#1528,#1816);
#2010 = PRESENTATION_STYLE_ASSIGNMENT((#2011));
#2011 = SURFACE_STYLE_USAGE(.BOTH.,#2012);
#2012 = SURFACE_SIDE_STYLE('',(#2013,#2016));
#2013 = SURFACE_STYLE_FILL_AREA(#2014);
#2014 = FILL_AREA_STYLE('',(#2015));
#2015 = FILL_AREA_STYLE_COLOUR('',#1997);
#2016 = SURFACE_STYLE_RENDERING_WITH_PROPERTIES(.NORMAL_SHADING.,#1997,(
    #2017));
#2017 = SURFACE_STYLE_TRANSPARENT(1.);
#2018 = OVER_RIDING_STYLED_ITEM('overriding color',(#2019),#1552,#1816);
#2019 = PRESENTATION_STYLE_ASSIGNMENT((#2020));
#2020 = SURFACE_STYLE_USAGE(.BOTH.,#2021);
#2021 = SURFACE_SIDE_STYLE('',(#2022,#2025));
#2022 = SURFACE_STYLE_FILL_AREA(#2023);
#2023 = FILL_AREA_STYLE('',(#2024));
#2024 = FILL_AREA_STYLE_COLOUR('',#1997);
#2025 = SURFACE_STYLE_RENDERING_WITH_PROPERTIES(.NORMAL_SHADING.,#1997,(
    #2026));
#2026 = SURFACE_STYLE_TRANSPARENT(1.);
#2027 = OVER_RIDING_STYLED_ITEM('overriding color',(#2028),#1569,#1816);
#2028 = PRESENTATION_STYLE_ASSIGNMENT((#2029));
#2029 = SURFACE_STYLE_USAGE(.BOTH.,#2030);
#2030 = SURFACE_SIDE_STYLE('',(#2031));
#2031 = SURFACE_STYLE_FILL_AREA(#2032);
#2032 = FILL_AREA_STYLE('',(#2033));
#2033 = FILL_AREA_STYLE_COLOUR('',#2034);
#2034 = DRAUGHTING_PRE_DEFINED_COLOUR('red');
#2035 = OVER_RIDING_STYLED_ITEM('overriding color',(#2036),#1600,#1816);
#2036 = PRESENTATION_STYLE_ASSIGNMENT((#2037));
#2037 = SURFACE_STYLE_USAGE(.BOTH.,#2038);
#2038 = SURFACE_SIDE_STYLE('',(#2039));
#2039 = SURFACE_STYLE_FILL_AREA(#2040);
#2040 = FILL_AREA_STYLE('',(#2041));
#2041 = FILL_AREA_STYLE_COLOUR('',#2034);
#2042 = OVER_RIDING_STYLED_ITEM('overriding color',(#2043),#1624,#1816);
#2043 = PRESENTATION_STYLE_ASSIGNMENT((#2044));
#2044 = SURFACE_STYLE_USAGE(.BOTH.,#2045);
#2045 = SURFACE_SIDE_STYLE('',(#2046));
#2046 = SURFACE_STYLE_FILL_AREA(#2047);
#2047 = FILL_AREA_STYLE('',(#2048));
#2048 = FILL_AREA_STYLE_COLOUR('',#2034);
#2049 = OVER_RIDING_STYLED_ITEM('overriding color',(#2050),#1648,#1816);
#2050 = PRESENTATION_STYLE_ASSIGNMENT((#2051));
#2051 = SURFACE_STYLE_USAGE(.BOTH.,#2052);
#2052 = SURFACE_SIDE_STYLE('',(#2053));
#2053 = SURFACE_STYLE_FILL_AREA(#2054);
#2054 = FILL_AREA_STYLE('',(#2055));
#2055 = FILL_AREA_STYLE_COLOUR('',#2034);
#2056 = OVER_RIDING_STYLED_ITEM('overriding color',(#2057),#1665,#1816);
#2057 = PRESENTATION_STYLE_ASSIGNMENT((#2058));
#2058 = SURFACE_STYLE_USAGE(.BOTH.,#2059);
#2059 = SURFACE_SIDE_STYLE('',(#2060));
#2060 = SURFACE_STYLE_FILL_AREA(#2061);
#2061 = FILL_AREA_STYLE('',(#2062));
#2062 = FILL_AREA_STYLE_COLOUR('',#2063);
#2063 = DRAUGHTING_PRE_DEFINED_COLOUR('green');
#2064 = OVER_RIDING_STYLED_ITEM('overriding color',(#2065),#1696,#1816);
#2065 = PRESENTATION_STYLE_ASSIGNMENT((#2066));
#2066 = SURFACE_STYLE_USAGE(.BOTH.,#2067);
#2067 = SURFACE_SIDE_STYLE('',(#2068));
#2068 = SURFACE_STYLE_FILL_AREA(#2069);
#2069 = FILL_AREA_STYLE('',(#2070));
#2070 = FILL_AREA_STYLE_COLOUR('',#2063);
#2071 = OVER_RIDING_STYLED_ITEM('overriding color',(#2072),#1720,#1816);
#2072 = PRESENTATION_STYLE_ASSIGNMENT((#2073));
#2073 = SURFACE_STYLE_USAGE(.BOTH.,#2074);
#2074 = SURFACE_SIDE_STYLE('',(#2075));
#2075 = SURFACE_STYLE_FILL_AREA(#2076);
#2076 = FILL_AREA_STYLE('',(#2077));
#2077 = FILL_AREA_STYLE_COLOUR('',#2063);
#2078 = OVER_RIDING_STYLED_ITEM('overriding color',(#2079),#1744,#1816);
#2079 = PRESENTATION_STYLE_ASSIGNMENT((#2080));
#2080 = SURFACE_STYLE_USAGE(.BOTH.,#2081);
#2081 = SURFACE_SIDE_STYLE('',(#2082));
#2082 = SURFACE_STYLE_FILL_AREA(#2083);
#2083 = FILL_AREA_STYLE('',(#2084));
#2084 = FILL_AREA_STYLE_COLOUR('',#2063);
#2085 = OVER_RIDING_STYLED_ITEM('overriding color',(#2086),#1761,#1816);
#2086 = PRESENTATION_STYLE_ASSIGNMENT((#2087));
#2087 = SURFACE_STYLE_USAGE(.BOTH.,#2088);
#2088 = SURFACE_SIDE_STYLE('',(#2089));
#2089 = SURFACE_STYLE_FILL_AREA(#2090);
#2090 = FILL_AREA_STYLE('',(#2091));
#2091 = FILL_AREA_STYLE_COLOUR('',#1968);
#2092 = OVER_RIDING_STYLED_ITEM('overriding color',(#2093),#1773,#1816);
#2093 = PRESENTATION_STYLE_ASSIGNMENT((#2094));
#2094 = SURFACE_STYLE_USAGE(.BOTH.,#2095);
#2095 = SURFACE_SIDE_STYLE('',(#2096,#2099));
#2096 = SURFACE_STYLE_FILL_AREA(#2097);
#2097 = FILL_AREA_STYLE('',(#2098));
#2098 = FILL_AREA_STYLE_COLOUR('',#1997);
#2099 = SURFACE_STYLE_RENDERING_WITH_PROPERTIES(.NORMAL_SHADING.,#1997,(
    #2100));
#2100 = SURFACE_STYLE_TRANSPARENT(1.);
#2101 = OVER_RIDING_STYLED_ITEM('overriding color',(#2102),#1785,#1816);
#2102 = PRESENTATION_STYLE_ASSIGNMENT((#2103));
#2103 = SURFACE_STYLE_USAGE(.BOTH.,#2104);
#2104 = SURFACE_SIDE_STYLE('',(#2105));
#2105 = SURFACE_STYLE_FILL_AREA(#2106);
#2106 = FILL_AREA_STYLE('',(#2107));
#2107 = FILL_AREA_STYLE_COLOUR('',#2034);
#2108 = OVER_RIDING_STYLED_ITEM('overriding color',(#2109),#1797,#1816);
#2109 = PRESENTATION_STYLE_ASSIGNMENT((#2110));
#2110 = SURFACE_STYLE_USAGE(.BOTH.,#2111);
#2111 = SURFACE_SIDE_STYLE('',(#2112));
#2112 = SURFACE_STYLE_FILL_AREA(#2113);
#2113 = FILL_AREA_STYLE('',(#2114));
#2114 = FILL_AREA_STYLE_COLOUR('',#2063);
ENDSEC;
END-ISO-10303-21;
